<?xml version="1.0" encoding="utf-8" standalone="no"?>
<!DOCTYPE svg PUBLIC "-//W3C//DTD SVG 1.1//EN"
  "http://www.w3.org/Graphics/SVG/1.1/DTD/svg11.dtd">
<svg xmlns:xlink="http://www.w3.org/1999/xlink" width="1288.8pt" height="863.28pt" viewBox="0 0 1288.8 863.28" xmlns="http://www.w3.org/2000/svg" version="1.1">
 <metadata>
  <rdf:RDF xmlns:dc="http://purl.org/dc/elements/1.1/" xmlns:cc="http://creativecommons.org/ns#" xmlns:rdf="http://www.w3.org/1999/02/22-rdf-syntax-ns#">
   <cc:Work>
    <dc:type rdf:resource="http://purl.org/dc/dcmitype/StillImage"/>
    <dc:date>2025-12-30T20:58:53.579226</dc:date>
    <dc:format>image/svg+xml</dc:format>
    <dc:creator>
     <cc:Agent>
      <dc:title>Matplotlib v3.10.8, https://matplotlib.org/</dc:title>
     </cc:Agent>
    </dc:creator>
   </cc:Work>
  </rdf:RDF>
 </metadata>
 <defs>
  <style type="text/css">*{stroke-linejoin: round; stroke-linecap: butt}</style>
 </defs>
 <g id="figure_1">
  <g id="patch_1">
   <path d="M 0 863.28 
L 1288.8 863.28 
L 1288.8 0 
L 0 0 
z
" style="fill: #ffffff"/>
  </g>
  <g id="axes_1">
   <g id="patch_2">
    <path d="M 16.445455 176.282829 
L 54.518867 184.245302 
L 104.004316 182.304782 
L 147.787266 167.350208 
L 176.458016 146.1803 
L 201.354545 107.003886 
z
" clip-path="url(#pc61d7e2bb1)" style="stroke: #000000; stroke-linejoin: miter"/>
   </g>
   <g id="text_1">
    <!-- LONDON -->
    <g style="fill: #262626" transform="translate(91.786875 91.680315) scale(0.08 -0.08)">
     <defs>
      <path id="ArialMT-4c" d="M 469 0 
L 469 4581 
L 1075 4581 
L 1075 541 
L 3331 541 
L 3331 0 
L 469 0 
z
" transform="scale(0.015625)"/>
      <path id="ArialMT-4f" d="M 309 2231 
Q 309 3372 921 4017 
Q 1534 4663 2503 4663 
Q 3138 4663 3647 4359 
Q 4156 4056 4423 3514 
Q 4691 2972 4691 2284 
Q 4691 1588 4409 1038 
Q 4128 488 3612 205 
Q 3097 -78 2500 -78 
Q 1853 -78 1343 234 
Q 834 547 571 1087 
Q 309 1628 309 2231 
z
M 934 2222 
Q 934 1394 1379 917 
Q 1825 441 2497 441 
Q 3181 441 3623 922 
Q 4066 1403 4066 2288 
Q 4066 2847 3877 3264 
Q 3688 3681 3323 3911 
Q 2959 4141 2506 4141 
Q 1863 4141 1398 3698 
Q 934 3256 934 2222 
z
" transform="scale(0.015625)"/>
      <path id="ArialMT-4e" d="M 488 0 
L 488 4581 
L 1109 4581 
L 3516 984 
L 3516 4581 
L 4097 4581 
L 4097 0 
L 3475 0 
L 1069 3600 
L 1069 0 
L 488 0 
z
" transform="scale(0.015625)"/>
      <path id="ArialMT-44" d="M 494 0 
L 494 4581 
L 2072 4581 
Q 2606 4581 2888 4516 
Q 3281 4425 3559 4188 
Q 3922 3881 4101 3404 
Q 4281 2928 4281 2316 
Q 4281 1794 4159 1391 
Q 4038 988 3847 723 
Q 3656 459 3429 307 
Q 3203 156 2883 78 
Q 2563 0 2147 0 
L 494 0 
z
M 1100 541 
L 2078 541 
Q 2531 541 2789 625 
Q 3047 709 3200 863 
Q 3416 1078 3536 1442 
Q 3656 1806 3656 2325 
Q 3656 3044 3420 3430 
Q 3184 3816 2847 3947 
Q 2603 4041 2063 4041 
L 1100 4041 
L 1100 541 
z
" transform="scale(0.015625)"/>
     </defs>
     <use xlink:href="#ArialMT-4c"/>
     <use xlink:href="#ArialMT-4f" transform="translate(55.615234 0)"/>
     <use xlink:href="#ArialMT-4e" transform="translate(133.398438 0)"/>
     <use xlink:href="#ArialMT-44" transform="translate(205.615234 0)"/>
     <use xlink:href="#ArialMT-4f" transform="translate(277.832031 0)"/>
     <use xlink:href="#ArialMT-4e" transform="translate(355.615234 0)"/>
    </g>
    <!-- 4m² -->
    <g style="fill: #262626" transform="translate(102.011875 100.141815) scale(0.08 -0.08)">
     <defs>
      <path id="ArialMT-34" d="M 2069 0 
L 2069 1097 
L 81 1097 
L 81 1613 
L 2172 4581 
L 2631 4581 
L 2631 1613 
L 3250 1613 
L 3250 1097 
L 2631 1097 
L 2631 0 
L 2069 0 
z
M 2069 1613 
L 2069 3678 
L 634 1613 
L 2069 1613 
z
" transform="scale(0.015625)"/>
      <path id="ArialMT-6d" d="M 422 0 
L 422 3319 
L 925 3319 
L 925 2853 
Q 1081 3097 1340 3245 
Q 1600 3394 1931 3394 
Q 2300 3394 2536 3241 
Q 2772 3088 2869 2813 
Q 3263 3394 3894 3394 
Q 4388 3394 4653 3120 
Q 4919 2847 4919 2278 
L 4919 0 
L 4359 0 
L 4359 2091 
Q 4359 2428 4304 2576 
Q 4250 2725 4106 2815 
Q 3963 2906 3769 2906 
Q 3419 2906 3187 2673 
Q 2956 2441 2956 1928 
L 2956 0 
L 2394 0 
L 2394 2156 
Q 2394 2531 2256 2718 
Q 2119 2906 1806 2906 
Q 1569 2906 1367 2781 
Q 1166 2656 1075 2415 
Q 984 2175 984 1722 
L 984 0 
L 422 0 
z
" transform="scale(0.015625)"/>
      <path id="ArialMT-b2" d="M 78 2291 
Q 97 2469 225 2647 
Q 422 2916 872 3242 
Q 1322 3569 1406 3663 
Q 1522 3791 1522 3925 
Q 1522 4075 1412 4172 
Q 1303 4269 1091 4269 
Q 884 4269 782 4195 
Q 681 4122 616 3913 
L 144 3963 
Q 234 4309 457 4473 
Q 681 4638 1100 4638 
Q 1572 4638 1792 4453 
Q 2013 4269 2013 4003 
Q 2013 3741 1828 3506 
Q 1688 3331 1188 2972 
Q 928 2781 819 2669 
L 2025 2669 
L 2025 2291 
L 78 2291 
z
" transform="scale(0.015625)"/>
     </defs>
     <use xlink:href="#ArialMT-34"/>
     <use xlink:href="#ArialMT-6d" transform="translate(55.615234 0)"/>
     <use xlink:href="#ArialMT-b2" transform="translate(138.916016 0)"/>
    </g>
   </g>
  </g>
  <g id="axes_2">
   <g id="patch_3">
    <path d="M 290.117779 202.504591 
L 256.007353 165.432544 
L 230.645455 111.24422 
L 376.609945 88.744597 
L 415.554545 185.003515 
z
" clip-path="url(#p425683cd78)" style="stroke: #000000; stroke-linejoin: miter"/>
   </g>
   <g id="text_2">
    <!-- LONDON -->
    <g style="fill: #262626" transform="translate(305.986875 71.595097) scale(0.08 -0.08)">
     <use xlink:href="#ArialMT-4c"/>
     <use xlink:href="#ArialMT-4f" transform="translate(55.615234 0)"/>
     <use xlink:href="#ArialMT-4e" transform="translate(133.398438 0)"/>
     <use xlink:href="#ArialMT-44" transform="translate(205.615234 0)"/>
     <use xlink:href="#ArialMT-4f" transform="translate(277.832031 0)"/>
     <use xlink:href="#ArialMT-4e" transform="translate(355.615234 0)"/>
    </g>
    <!-- 62m² -->
    <g style="fill: #262626" transform="translate(313.9875 80.056597) scale(0.08 -0.08)">
     <defs>
      <path id="ArialMT-36" d="M 3184 3459 
L 2625 3416 
Q 2550 3747 2413 3897 
Q 2184 4138 1850 4138 
Q 1581 4138 1378 3988 
Q 1113 3794 959 3422 
Q 806 3050 800 2363 
Q 1003 2672 1297 2822 
Q 1591 2972 1913 2972 
Q 2475 2972 2870 2558 
Q 3266 2144 3266 1488 
Q 3266 1056 3080 686 
Q 2894 316 2569 119 
Q 2244 -78 1831 -78 
Q 1128 -78 684 439 
Q 241 956 241 2144 
Q 241 3472 731 4075 
Q 1159 4600 1884 4600 
Q 2425 4600 2770 4297 
Q 3116 3994 3184 3459 
z
M 888 1484 
Q 888 1194 1011 928 
Q 1134 663 1356 523 
Q 1578 384 1822 384 
Q 2178 384 2434 671 
Q 2691 959 2691 1453 
Q 2691 1928 2437 2201 
Q 2184 2475 1800 2475 
Q 1419 2475 1153 2201 
Q 888 1928 888 1484 
z
" transform="scale(0.015625)"/>
      <path id="ArialMT-32" d="M 3222 541 
L 3222 0 
L 194 0 
Q 188 203 259 391 
Q 375 700 629 1000 
Q 884 1300 1366 1694 
Q 2113 2306 2375 2664 
Q 2638 3022 2638 3341 
Q 2638 3675 2398 3904 
Q 2159 4134 1775 4134 
Q 1369 4134 1125 3890 
Q 881 3647 878 3216 
L 300 3275 
Q 359 3922 746 4261 
Q 1134 4600 1788 4600 
Q 2447 4600 2831 4234 
Q 3216 3869 3216 3328 
Q 3216 3053 3103 2787 
Q 2991 2522 2730 2228 
Q 2469 1934 1863 1422 
Q 1356 997 1212 845 
Q 1069 694 975 541 
L 3222 541 
z
" transform="scale(0.015625)"/>
     </defs>
     <use xlink:href="#ArialMT-36"/>
     <use xlink:href="#ArialMT-32" transform="translate(55.615234 0)"/>
     <use xlink:href="#ArialMT-6d" transform="translate(111.230469 0)"/>
     <use xlink:href="#ArialMT-b2" transform="translate(194.53125 0)"/>
    </g>
   </g>
  </g>
  <g id="axes_3">
   <g id="patch_4">
    <path d="M 557.052982 227.016724 
L 564.251822 224.084198 
L 591.85662 212.808499 
L 596.051315 211.115025 
L 602.559621 208.413439 
L 574.681637 139.79059 
L 530.711915 79.239677 
L 522.549378 85.165841 
L 517.660562 88.619271 
L 497.560378 64.232463 
L 472.040379 80.012938 
L 530.250978 159.880509 
z
" clip-path="url(#pd23e969d06)" style="stroke: #000000; stroke-linejoin: miter"/>
   </g>
   <g id="text_3">
    <!-- LONDON -->
    <g style="fill: #262626" transform="translate(520.186875 44.63175) scale(0.08 -0.08)">
     <use xlink:href="#ArialMT-4c"/>
     <use xlink:href="#ArialMT-4f" transform="translate(55.615234 0)"/>
     <use xlink:href="#ArialMT-4e" transform="translate(133.398438 0)"/>
     <use xlink:href="#ArialMT-44" transform="translate(205.615234 0)"/>
     <use xlink:href="#ArialMT-4f" transform="translate(277.832031 0)"/>
     <use xlink:href="#ArialMT-4e" transform="translate(355.615234 0)"/>
    </g>
    <!-- 95m² -->
    <g style="fill: #262626" transform="translate(528.1875 53.09325) scale(0.08 -0.08)">
     <defs>
      <path id="ArialMT-39" d="M 350 1059 
L 891 1109 
Q 959 728 1153 556 
Q 1347 384 1650 384 
Q 1909 384 2104 503 
Q 2300 622 2425 820 
Q 2550 1019 2634 1356 
Q 2719 1694 2719 2044 
Q 2719 2081 2716 2156 
Q 2547 1888 2255 1720 
Q 1963 1553 1622 1553 
Q 1053 1553 659 1965 
Q 266 2378 266 3053 
Q 266 3750 677 4175 
Q 1088 4600 1706 4600 
Q 2153 4600 2523 4359 
Q 2894 4119 3086 3673 
Q 3278 3228 3278 2384 
Q 3278 1506 3087 986 
Q 2897 466 2520 194 
Q 2144 -78 1638 -78 
Q 1100 -78 759 220 
Q 419 519 350 1059 
z
M 2653 3081 
Q 2653 3566 2395 3850 
Q 2138 4134 1775 4134 
Q 1400 4134 1122 3828 
Q 844 3522 844 3034 
Q 844 2597 1108 2323 
Q 1372 2050 1759 2050 
Q 2150 2050 2401 2323 
Q 2653 2597 2653 3081 
z
" transform="scale(0.015625)"/>
      <path id="ArialMT-35" d="M 266 1200 
L 856 1250 
Q 922 819 1161 601 
Q 1400 384 1738 384 
Q 2144 384 2425 690 
Q 2706 997 2706 1503 
Q 2706 1984 2436 2262 
Q 2166 2541 1728 2541 
Q 1456 2541 1237 2417 
Q 1019 2294 894 2097 
L 366 2166 
L 809 4519 
L 3088 4519 
L 3088 3981 
L 1259 3981 
L 1013 2750 
Q 1425 3038 1878 3038 
Q 2478 3038 2890 2622 
Q 3303 2206 3303 1553 
Q 3303 931 2941 478 
Q 2500 -78 1738 -78 
Q 1113 -78 717 272 
Q 322 622 266 1200 
z
" transform="scale(0.015625)"/>
     </defs>
     <use xlink:href="#ArialMT-39"/>
     <use xlink:href="#ArialMT-35" transform="translate(55.615234 0)"/>
     <use xlink:href="#ArialMT-6d" transform="translate(111.230469 0)"/>
     <use xlink:href="#ArialMT-b2" transform="translate(194.53125 0)"/>
    </g>
   </g>
  </g>
  <g id="axes_4">
   <g id="patch_5">
    <path d="M 837.171799 146.694853 
L 786.110128 64.232463 
L 776.292176 70.708925 
L 735.174576 98.006939 
L 723.443616 105.776694 
L 713.376628 112.364433 
L 689.479901 128.124029 
L 665.828201 143.670956 
L 712.490127 227.016724 
L 764.900077 192.067706 
L 753.009074 174.767992 
L 777.111842 161.030706 
L 788.006774 178.775578 
z
" clip-path="url(#p7828642ebb)" style="stroke: #000000; stroke-linejoin: miter"/>
   </g>
   <g id="text_4">
    <!-- LONDON -->
    <g style="fill: #262626" transform="translate(734.386875 44.63175) scale(0.08 -0.08)">
     <use xlink:href="#ArialMT-4c"/>
     <use xlink:href="#ArialMT-4f" transform="translate(55.615234 0)"/>
     <use xlink:href="#ArialMT-4e" transform="translate(133.398438 0)"/>
     <use xlink:href="#ArialMT-44" transform="translate(205.615234 0)"/>
     <use xlink:href="#ArialMT-4f" transform="translate(277.832031 0)"/>
     <use xlink:href="#ArialMT-4e" transform="translate(355.615234 0)"/>
    </g>
    <!-- 162m² -->
    <g style="fill: #262626" transform="translate(740.163125 53.09325) scale(0.08 -0.08)">
     <defs>
      <path id="ArialMT-31" d="M 2384 0 
L 1822 0 
L 1822 3584 
Q 1619 3391 1289 3197 
Q 959 3003 697 2906 
L 697 3450 
Q 1169 3672 1522 3987 
Q 1875 4303 2022 4600 
L 2384 4600 
L 2384 0 
z
" transform="scale(0.015625)"/>
     </defs>
     <use xlink:href="#ArialMT-31"/>
     <use xlink:href="#ArialMT-36" transform="translate(55.615234 0)"/>
     <use xlink:href="#ArialMT-32" transform="translate(111.230469 0)"/>
     <use xlink:href="#ArialMT-6d" transform="translate(166.845703 0)"/>
     <use xlink:href="#ArialMT-b2" transform="translate(250.146484 0)"/>
    </g>
   </g>
  </g>
  <g id="axes_5">
   <g id="patch_6">
    <path d="M 873.245455 98.856736 
L 873.436731 105.462553 
L 876.499419 173.880396 
L 879.023757 197.337809 
L 945.309782 187.46472 
L 950.091782 186.784963 
L 949.25136 180.149992 
L 1058.154545 166.470811 
L 1054.604706 144.693365 
L 982.742419 153.255463 
L 979.638355 127.197358 
L 964.42395 128.833516 
L 962.202208 107.003888 
L 948.6542 108.519917 
L 948.166161 98.701076 
L 944.874523 93.911378 
z
" clip-path="url(#paf234315f4)" style="stroke: #000000; stroke-linejoin: miter"/>
   </g>
   <g id="text_5">
    <!-- LONDON -->
    <g style="fill: #262626" transform="translate(948.586875 77.278557) scale(0.08 -0.08)">
     <use xlink:href="#ArialMT-4c"/>
     <use xlink:href="#ArialMT-4f" transform="translate(55.615234 0)"/>
     <use xlink:href="#ArialMT-4e" transform="translate(133.398438 0)"/>
     <use xlink:href="#ArialMT-44" transform="translate(205.615234 0)"/>
     <use xlink:href="#ArialMT-4f" transform="translate(277.832031 0)"/>
     <use xlink:href="#ArialMT-4e" transform="translate(355.615234 0)"/>
    </g>
    <!-- 442m² -->
    <g style="fill: #262626" transform="translate(954.363125 85.740057) scale(0.08 -0.08)">
     <use xlink:href="#ArialMT-34"/>
     <use xlink:href="#ArialMT-34" transform="translate(55.615234 0)"/>
     <use xlink:href="#ArialMT-32" transform="translate(111.230469 0)"/>
     <use xlink:href="#ArialMT-6d" transform="translate(166.845703 0)"/>
     <use xlink:href="#ArialMT-b2" transform="translate(250.146484 0)"/>
    </g>
   </g>
  </g>
  <g id="axes_6">
   <g id="patch_7">
    <path d="M 1128.390881 203.250673 
L 1138.62179 199.975853 
L 1142.855776 198.627253 
L 1144.541911 203.988342 
L 1154.119963 200.999249 
L 1153.566534 199.306475 
L 1162.686467 196.489062 
L 1163.450494 198.847543 
L 1163.735736 199.723155 
L 1168.02036 198.348899 
L 1171.634155 197.178336 
L 1176.224488 195.697479 
L 1176.006061 195.020254 
L 1175.175212 192.463387 
L 1184.408827 189.535056 
L 1185.161422 192.165939 
L 1191.480615 190.179701 
L 1192.596817 193.990545 
L 1193.511543 196.804247 
L 1193.993582 198.369756 
L 1215.108252 191.912448 
L 1214.626207 190.346942 
L 1213.722446 187.249033 
L 1212.571762 183.687853 
L 1218.709076 181.767845 
L 1217.98691 179.348605 
L 1227.308426 176.404922 
L 1228.072944 178.775201 
L 1228.358196 179.65081 
L 1232.642327 178.264696 
L 1234.455884 177.661394 
L 1236.25656 177.105894 
L 1240.846862 175.624981 
L 1240.628426 174.947759 
L 1239.797085 172.379096 
L 1249.054129 169.485202 
L 1249.677188 171.447189 
L 1258.861946 168.591589 
L 1257.264933 162.872304 
L 1272.354545 158.566889 
L 1266.901006 141.82526 
L 1265.68322 142.19234 
L 1259.256846 144.265648 
L 1246.546223 101.866848 
L 1243.858287 100.683576 
L 1189.366699 117.355107 
L 1186.445403 107.59665 
L 1181.420444 108.905398 
L 1169.594425 112.704073 
L 1169.15887 111.006673 
L 1160.917062 113.446736 
L 1160.502683 111.724856 
L 1154.228241 113.72113 
L 1153.765076 112.072109 
L 1149.074405 113.438649 
L 1149.683568 115.235653 
L 1142.780186 117.374842 
L 1141.506079 113.48742 
L 1140.377624 113.874614 
L 1132.485859 87.260845 
L 1087.445455 101.100948 
L 1099.594819 141.263662 
L 1110.22437 137.996893 
L 1111.315995 141.371222 
L 1108.52586 142.095577 
L 1113.728001 159.024563 
L 1117.343168 157.889453 
L 1120.579427 168.155841 
L 1121.631911 171.472583 
L 1122.608361 174.544003 
L 1126.256504 185.716504 
L 1123.246769 186.674143 
z
" clip-path="url(#pc4acd4eda5)" style="stroke: #000000; stroke-linejoin: miter"/>
   </g>
   <g id="text_6">
    <!-- LONDON -->
    <g style="fill: #262626" transform="translate(1162.786875 69.962971) scale(0.08 -0.08)">
     <use xlink:href="#ArialMT-4c"/>
     <use xlink:href="#ArialMT-4f" transform="translate(55.615234 0)"/>
     <use xlink:href="#ArialMT-4e" transform="translate(133.398438 0)"/>
     <use xlink:href="#ArialMT-44" transform="translate(205.615234 0)"/>
     <use xlink:href="#ArialMT-4f" transform="translate(277.832031 0)"/>
     <use xlink:href="#ArialMT-4e" transform="translate(355.615234 0)"/>
    </g>
    <!-- 11265m² -->
    <g style="fill: #262626" transform="translate(1164.409375 78.424471) scale(0.08 -0.08)">
     <use xlink:href="#ArialMT-31"/>
     <use xlink:href="#ArialMT-31" transform="translate(48.240234 0)"/>
     <use xlink:href="#ArialMT-32" transform="translate(103.855469 0)"/>
     <use xlink:href="#ArialMT-36" transform="translate(159.470703 0)"/>
     <use xlink:href="#ArialMT-35" transform="translate(215.085938 0)"/>
     <use xlink:href="#ArialMT-6d" transform="translate(270.701172 0)"/>
     <use xlink:href="#ArialMT-b2" transform="translate(354.001953 0)"/>
    </g>
   </g>
  </g>
  <g id="axes_7">
   <g id="patch_8">
    <path d="M 173.782103 411.237446 
L 86.099794 433.991412 
L 44.017897 293.86003 
L 136.262234 271.207151 
z
" clip-path="url(#p911ac9349e)" style="stroke: #000000; stroke-linejoin: miter"/>
   </g>
   <g id="text_7">
    <!-- BERLIN -->
    <g style="fill: #262626" transform="translate(94.450625 251.606437) scale(0.08 -0.08)">
     <defs>
      <path id="ArialMT-42" d="M 469 0 
L 469 4581 
L 2188 4581 
Q 2713 4581 3030 4442 
Q 3347 4303 3526 4014 
Q 3706 3725 3706 3409 
Q 3706 3116 3547 2856 
Q 3388 2597 3066 2438 
Q 3481 2316 3704 2022 
Q 3928 1728 3928 1328 
Q 3928 1006 3792 729 
Q 3656 453 3456 303 
Q 3256 153 2954 76 
Q 2653 0 2216 0 
L 469 0 
z
M 1075 2656 
L 2066 2656 
Q 2469 2656 2644 2709 
Q 2875 2778 2992 2937 
Q 3109 3097 3109 3338 
Q 3109 3566 3000 3739 
Q 2891 3913 2687 3977 
Q 2484 4041 1991 4041 
L 1075 4041 
L 1075 2656 
z
M 1075 541 
L 2216 541 
Q 2509 541 2628 563 
Q 2838 600 2978 687 
Q 3119 775 3209 942 
Q 3300 1109 3300 1328 
Q 3300 1584 3169 1773 
Q 3038 1963 2805 2039 
Q 2572 2116 2134 2116 
L 1075 2116 
L 1075 541 
z
" transform="scale(0.015625)"/>
      <path id="ArialMT-45" d="M 506 0 
L 506 4581 
L 3819 4581 
L 3819 4041 
L 1113 4041 
L 1113 2638 
L 3647 2638 
L 3647 2100 
L 1113 2100 
L 1113 541 
L 3925 541 
L 3925 0 
L 506 0 
z
" transform="scale(0.015625)"/>
      <path id="ArialMT-52" d="M 503 0 
L 503 4581 
L 2534 4581 
Q 3147 4581 3465 4457 
Q 3784 4334 3975 4021 
Q 4166 3709 4166 3331 
Q 4166 2844 3850 2509 
Q 3534 2175 2875 2084 
Q 3116 1969 3241 1856 
Q 3506 1613 3744 1247 
L 4541 0 
L 3778 0 
L 3172 953 
Q 2906 1366 2734 1584 
Q 2563 1803 2427 1890 
Q 2291 1978 2150 2013 
Q 2047 2034 1813 2034 
L 1109 2034 
L 1109 0 
L 503 0 
z
M 1109 2559 
L 2413 2559 
Q 2828 2559 3062 2645 
Q 3297 2731 3419 2920 
Q 3541 3109 3541 3331 
Q 3541 3656 3305 3865 
Q 3069 4075 2559 4075 
L 1109 4075 
L 1109 2559 
z
" transform="scale(0.015625)"/>
      <path id="ArialMT-49" d="M 597 0 
L 597 4581 
L 1203 4581 
L 1203 0 
L 597 0 
z
" transform="scale(0.015625)"/>
     </defs>
     <use xlink:href="#ArialMT-42"/>
     <use xlink:href="#ArialMT-45" transform="translate(66.699219 0)"/>
     <use xlink:href="#ArialMT-52" transform="translate(133.398438 0)"/>
     <use xlink:href="#ArialMT-4c" transform="translate(205.615234 0)"/>
     <use xlink:href="#ArialMT-49" transform="translate(261.230469 0)"/>
     <use xlink:href="#ArialMT-4e" transform="translate(289.013672 0)"/>
    </g>
    <!-- 3m² -->
    <g style="fill: #262626" transform="translate(102.011875 260.067937) scale(0.08 -0.08)">
     <defs>
      <path id="ArialMT-33" d="M 269 1209 
L 831 1284 
Q 928 806 1161 595 
Q 1394 384 1728 384 
Q 2125 384 2398 659 
Q 2672 934 2672 1341 
Q 2672 1728 2419 1979 
Q 2166 2231 1775 2231 
Q 1616 2231 1378 2169 
L 1441 2663 
Q 1497 2656 1531 2656 
Q 1891 2656 2178 2843 
Q 2466 3031 2466 3422 
Q 2466 3731 2256 3934 
Q 2047 4138 1716 4138 
Q 1388 4138 1169 3931 
Q 950 3725 888 3313 
L 325 3413 
Q 428 3978 793 4289 
Q 1159 4600 1703 4600 
Q 2078 4600 2393 4439 
Q 2709 4278 2876 4000 
Q 3044 3722 3044 3409 
Q 3044 3113 2884 2869 
Q 2725 2625 2413 2481 
Q 2819 2388 3044 2092 
Q 3269 1797 3269 1353 
Q 3269 753 2831 336 
Q 2394 -81 1725 -81 
Q 1122 -81 723 278 
Q 325 638 269 1209 
z
" transform="scale(0.015625)"/>
     </defs>
     <use xlink:href="#ArialMT-33"/>
     <use xlink:href="#ArialMT-6d" transform="translate(55.615234 0)"/>
     <use xlink:href="#ArialMT-b2" transform="translate(138.916016 0)"/>
    </g>
   </g>
  </g>
  <g id="axes_8">
   <g id="patch_9">
    <path d="M 307.555098 278.680594 
L 260.387283 394.856421 
L 338.274147 433.991412 
L 381.039634 322.576997 
L 385.812717 307.74169 
L 310.165137 271.207151 
z
" clip-path="url(#p7e42a3394f)" style="stroke: #000000; stroke-linejoin: miter"/>
   </g>
   <g id="text_8">
    <!-- BERLIN -->
    <g style="fill: #262626" transform="translate(308.650625 251.606437) scale(0.08 -0.08)">
     <use xlink:href="#ArialMT-42"/>
     <use xlink:href="#ArialMT-45" transform="translate(66.699219 0)"/>
     <use xlink:href="#ArialMT-52" transform="translate(133.398438 0)"/>
     <use xlink:href="#ArialMT-4c" transform="translate(205.615234 0)"/>
     <use xlink:href="#ArialMT-49" transform="translate(261.230469 0)"/>
     <use xlink:href="#ArialMT-4e" transform="translate(289.013672 0)"/>
    </g>
    <!-- 96m² -->
    <g style="fill: #262626" transform="translate(313.9875 260.067937) scale(0.08 -0.08)">
     <use xlink:href="#ArialMT-39"/>
     <use xlink:href="#ArialMT-36" transform="translate(55.615234 0)"/>
     <use xlink:href="#ArialMT-6d" transform="translate(111.230469 0)"/>
     <use xlink:href="#ArialMT-b2" transform="translate(194.53125 0)"/>
    </g>
   </g>
  </g>
  <g id="axes_9">
   <g id="patch_10">
    <path d="M 507.694274 271.207151 
L 605.231635 317.296787 
L 548.831193 433.991412 
L 469.368365 389.621147 
L 472.082583 381.290438 
L 476.711788 366.968292 
L 490.165827 325.406431 
z
" clip-path="url(#pa203c71e19)" style="stroke: #000000; stroke-linejoin: miter"/>
   </g>
   <g id="text_9">
    <!-- BERLIN -->
    <g style="fill: #262626" transform="translate(522.850625 251.606437) scale(0.08 -0.08)">
     <use xlink:href="#ArialMT-42"/>
     <use xlink:href="#ArialMT-45" transform="translate(66.699219 0)"/>
     <use xlink:href="#ArialMT-52" transform="translate(133.398438 0)"/>
     <use xlink:href="#ArialMT-4c" transform="translate(205.615234 0)"/>
     <use xlink:href="#ArialMT-49" transform="translate(261.230469 0)"/>
     <use xlink:href="#ArialMT-4e" transform="translate(289.013672 0)"/>
    </g>
    <!-- 175m² -->
    <g style="fill: #262626" transform="translate(525.963125 260.067937) scale(0.08 -0.08)">
     <defs>
      <path id="ArialMT-37" d="M 303 3981 
L 303 4522 
L 3269 4522 
L 3269 4084 
Q 2831 3619 2401 2847 
Q 1972 2075 1738 1259 
Q 1569 684 1522 0 
L 944 0 
Q 953 541 1156 1306 
Q 1359 2072 1739 2783 
Q 2119 3494 2547 3981 
L 303 3981 
z
" transform="scale(0.015625)"/>
     </defs>
     <use xlink:href="#ArialMT-31"/>
     <use xlink:href="#ArialMT-37" transform="translate(55.615234 0)"/>
     <use xlink:href="#ArialMT-35" transform="translate(111.230469 0)"/>
     <use xlink:href="#ArialMT-6d" transform="translate(166.845703 0)"/>
     <use xlink:href="#ArialMT-b2" transform="translate(250.146484 0)"/>
    </g>
   </g>
  </g>
  <g id="axes_10">
   <g id="patch_11">
    <path d="M 746.632889 279.336915 
L 760.409504 330.061692 
L 738.469325 335.942516 
L 689.456131 349.071071 
L 700.974347 391.675744 
L 712.815089 433.991412 
L 722.265062 431.387496 
L 813.543869 406.01716 
L 802.165023 365.266553 
L 796.208871 340.628193 
L 795.460457 337.724151 
L 777.337759 271.207151 
z
" clip-path="url(#p10524afddc)" style="stroke: #000000; stroke-linejoin: miter"/>
   </g>
   <g id="text_10">
    <!-- BERLIN -->
    <g style="fill: #262626" transform="translate(737.050625 251.606437) scale(0.08 -0.08)">
     <use xlink:href="#ArialMT-42"/>
     <use xlink:href="#ArialMT-45" transform="translate(66.699219 0)"/>
     <use xlink:href="#ArialMT-52" transform="translate(133.398438 0)"/>
     <use xlink:href="#ArialMT-4c" transform="translate(205.615234 0)"/>
     <use xlink:href="#ArialMT-49" transform="translate(261.230469 0)"/>
     <use xlink:href="#ArialMT-4e" transform="translate(289.013672 0)"/>
    </g>
    <!-- 245m² -->
    <g style="fill: #262626" transform="translate(740.163125 260.067937) scale(0.08 -0.08)">
     <use xlink:href="#ArialMT-32"/>
     <use xlink:href="#ArialMT-34" transform="translate(55.615234 0)"/>
     <use xlink:href="#ArialMT-35" transform="translate(111.230469 0)"/>
     <use xlink:href="#ArialMT-6d" transform="translate(166.845703 0)"/>
     <use xlink:href="#ArialMT-b2" transform="translate(250.146484 0)"/>
    </g>
   </g>
  </g>
  <g id="axes_11">
   <g id="patch_12">
    <path d="M 909.579739 316.513834 
L 907.104194 304.068133 
L 873.245455 312.273391 
L 889.217409 393.908569 
L 919.732564 392.026535 
L 920.310929 401.130429 
L 937.833674 399.902941 
L 937.671727 397.946453 
L 982.660045 395.307941 
L 982.823488 397.19712 
L 1000.33727 396.373443 
L 999.799929 387.270462 
L 1058.154545 383.7835 
L 1027.925448 307.960267 
L 1026.478294 304.695792 
L 1008.984705 310.166473 
z
" clip-path="url(#p1c0cf66b13)" style="stroke: #000000; stroke-linejoin: miter"/>
   </g>
   <g id="text_11">
    <!-- BERLIN -->
    <g style="fill: #262626" transform="translate(951.250625 287.753519) scale(0.08 -0.08)">
     <use xlink:href="#ArialMT-42"/>
     <use xlink:href="#ArialMT-45" transform="translate(66.699219 0)"/>
     <use xlink:href="#ArialMT-52" transform="translate(133.398438 0)"/>
     <use xlink:href="#ArialMT-4c" transform="translate(205.615234 0)"/>
     <use xlink:href="#ArialMT-49" transform="translate(261.230469 0)"/>
     <use xlink:href="#ArialMT-4e" transform="translate(289.013672 0)"/>
    </g>
    <!-- 364m² -->
    <g style="fill: #262626" transform="translate(954.363125 296.215019) scale(0.08 -0.08)">
     <use xlink:href="#ArialMT-33"/>
     <use xlink:href="#ArialMT-36" transform="translate(55.615234 0)"/>
     <use xlink:href="#ArialMT-34" transform="translate(111.230469 0)"/>
     <use xlink:href="#ArialMT-6d" transform="translate(166.845703 0)"/>
     <use xlink:href="#ArialMT-b2" transform="translate(250.146484 0)"/>
    </g>
   </g>
  </g>
  <g id="axes_12">
   <g id="patch_13">
    <path d="M 1125.511642 381.740519 
L 1166.714064 327.135774 
L 1172.446685 331.484729 
L 1197.320651 297.369833 
L 1246.347015 322.24007 
L 1244.070605 326.464206 
L 1245.767793 327.353098 
L 1244.593207 329.67287 
L 1251.88887 333.309132 
L 1253.027841 331.162328 
L 1258.265789 333.919107 
L 1270.305926 309.389925 
L 1256.459561 301.9775 
L 1255.340245 304.194241 
L 1189.685522 271.207151 
L 1180.258798 288.722059 
L 1189.963411 293.645279 
L 1177.659965 311.374638 
L 1164.959812 301.971792 
L 1122.116803 358.88598 
L 1114.10419 353.166042 
L 1103.472891 367.630871 
L 1100.949804 365.750654 
L 1098.840179 368.657886 
L 1100.457071 369.823046 
L 1093.111601 379.947072 
L 1091.505301 378.782145 
L 1090.630638 379.996483 
L 1089.494074 381.552544 
L 1091.756189 383.25324 
L 1090.424352 385.013493 
L 1098.981882 391.492654 
L 1100.303125 389.732166 
L 1101.710474 390.788439 
L 1101.400445 391.389735 
L 1102.424314 392.055267 
L 1102.992787 391.268551 
L 1147.479708 423.510604 
L 1146.926052 424.106518 
L 1149.448786 426.004087 
L 1148.34439 427.543492 
L 1156.780661 433.759271 
L 1157.902787 432.376637 
L 1160.209221 433.991412 
L 1173.522641 416.128009 
L 1171.186735 414.408333 
L 1172.311925 412.88676 
L 1163.584446 406.421304 
L 1162.459255 407.942875 
L 1160.21907 406.207935 
L 1159.6876 407.238731 
z
" clip-path="url(#p5ea73dfead)" style="stroke: #000000; stroke-linejoin: miter"/>
   </g>
   <g id="text_12">
    <!-- BERLIN -->
    <g style="fill: #262626" transform="translate(1165.450625 251.606437) scale(0.08 -0.08)">
     <use xlink:href="#ArialMT-42"/>
     <use xlink:href="#ArialMT-45" transform="translate(66.699219 0)"/>
     <use xlink:href="#ArialMT-52" transform="translate(133.398438 0)"/>
     <use xlink:href="#ArialMT-4c" transform="translate(205.615234 0)"/>
     <use xlink:href="#ArialMT-49" transform="translate(261.230469 0)"/>
     <use xlink:href="#ArialMT-4e" transform="translate(289.013672 0)"/>
    </g>
    <!-- 2356m² -->
    <g style="fill: #262626" transform="translate(1166.33875 260.067937) scale(0.08 -0.08)">
     <use xlink:href="#ArialMT-32"/>
     <use xlink:href="#ArialMT-33" transform="translate(55.615234 0)"/>
     <use xlink:href="#ArialMT-35" transform="translate(111.230469 0)"/>
     <use xlink:href="#ArialMT-36" transform="translate(166.845703 0)"/>
     <use xlink:href="#ArialMT-6d" transform="translate(222.460938 0)"/>
     <use xlink:href="#ArialMT-b2" transform="translate(305.761719 0)"/>
    </g>
   </g>
  </g>
  <g id="axes_13">
   <g id="patch_14">
    <path d="M 37.80267 537.689267 
L 129.315911 640.966099 
L 179.316174 599.439811 
L 159.562273 573.005037 
L 179.99733 557.585306 
L 105.839293 478.181838 
z
" clip-path="url(#pdea1c41a85)" style="stroke: #000000; stroke-linejoin: miter"/>
   </g>
   <g id="text_13">
    <!-- BELGRADE -->
    <g style="fill: #262626" transform="translate(87.114375 458.581125) scale(0.08 -0.08)">
     <defs>
      <path id="ArialMT-47" d="M 2638 1797 
L 2638 2334 
L 4578 2338 
L 4578 638 
Q 4131 281 3656 101 
Q 3181 -78 2681 -78 
Q 2006 -78 1454 211 
Q 903 500 622 1047 
Q 341 1594 341 2269 
Q 341 2938 620 3517 
Q 900 4097 1425 4378 
Q 1950 4659 2634 4659 
Q 3131 4659 3532 4498 
Q 3934 4338 4162 4050 
Q 4391 3763 4509 3300 
L 3963 3150 
Q 3859 3500 3706 3700 
Q 3553 3900 3268 4020 
Q 2984 4141 2638 4141 
Q 2222 4141 1919 4014 
Q 1616 3888 1430 3681 
Q 1244 3475 1141 3228 
Q 966 2803 966 2306 
Q 966 1694 1177 1281 
Q 1388 869 1791 669 
Q 2194 469 2647 469 
Q 3041 469 3416 620 
Q 3791 772 3984 944 
L 3984 1797 
L 2638 1797 
z
" transform="scale(0.015625)"/>
      <path id="ArialMT-41" d="M -9 0 
L 1750 4581 
L 2403 4581 
L 4278 0 
L 3588 0 
L 3053 1388 
L 1138 1388 
L 634 0 
L -9 0 
z
M 1313 1881 
L 2866 1881 
L 2388 3150 
Q 2169 3728 2063 4100 
Q 1975 3659 1816 3225 
L 1313 1881 
z
" transform="scale(0.015625)"/>
     </defs>
     <use xlink:href="#ArialMT-42"/>
     <use xlink:href="#ArialMT-45" transform="translate(66.699219 0)"/>
     <use xlink:href="#ArialMT-4c" transform="translate(133.398438 0)"/>
     <use xlink:href="#ArialMT-47" transform="translate(189.013672 0)"/>
     <use xlink:href="#ArialMT-52" transform="translate(266.796875 0)"/>
     <use xlink:href="#ArialMT-41" transform="translate(339.013672 0)"/>
     <use xlink:href="#ArialMT-44" transform="translate(405.712891 0)"/>
     <use xlink:href="#ArialMT-45" transform="translate(477.929688 0)"/>
    </g>
    <!-- 18m² -->
    <g style="fill: #262626" transform="translate(99.7875 467.042625) scale(0.08 -0.08)">
     <defs>
      <path id="ArialMT-38" d="M 1131 2484 
Q 781 2613 612 2850 
Q 444 3088 444 3419 
Q 444 3919 803 4259 
Q 1163 4600 1759 4600 
Q 2359 4600 2725 4251 
Q 3091 3903 3091 3403 
Q 3091 3084 2923 2848 
Q 2756 2613 2416 2484 
Q 2838 2347 3058 2040 
Q 3278 1734 3278 1309 
Q 3278 722 2862 322 
Q 2447 -78 1769 -78 
Q 1091 -78 675 323 
Q 259 725 259 1325 
Q 259 1772 486 2073 
Q 713 2375 1131 2484 
z
M 1019 3438 
Q 1019 3113 1228 2906 
Q 1438 2700 1772 2700 
Q 2097 2700 2305 2904 
Q 2513 3109 2513 3406 
Q 2513 3716 2298 3927 
Q 2084 4138 1766 4138 
Q 1444 4138 1231 3931 
Q 1019 3725 1019 3438 
z
M 838 1322 
Q 838 1081 952 856 
Q 1066 631 1291 507 
Q 1516 384 1775 384 
Q 2178 384 2440 643 
Q 2703 903 2703 1303 
Q 2703 1709 2433 1975 
Q 2163 2241 1756 2241 
Q 1359 2241 1098 1978 
Q 838 1716 838 1322 
z
" transform="scale(0.015625)"/>
     </defs>
     <use xlink:href="#ArialMT-31"/>
     <use xlink:href="#ArialMT-38" transform="translate(55.615234 0)"/>
     <use xlink:href="#ArialMT-6d" transform="translate(111.230469 0)"/>
     <use xlink:href="#ArialMT-b2" transform="translate(194.53125 0)"/>
    </g>
   </g>
  </g>
  <g id="axes_14">
   <g id="patch_15">
    <path d="M 242.749592 517.036479 
L 263.787466 640.966099 
L 331.376615 601.36582 
L 403.450408 553.850154 
L 325.694433 478.181838 
z
" clip-path="url(#pf90273dfd6)" style="stroke: #000000; stroke-linejoin: miter"/>
   </g>
   <g id="text_14">
    <!-- BELGRADE -->
    <g style="fill: #262626" transform="translate(301.314375 458.581125) scale(0.08 -0.08)">
     <use xlink:href="#ArialMT-42"/>
     <use xlink:href="#ArialMT-45" transform="translate(66.699219 0)"/>
     <use xlink:href="#ArialMT-4c" transform="translate(133.398438 0)"/>
     <use xlink:href="#ArialMT-47" transform="translate(189.013672 0)"/>
     <use xlink:href="#ArialMT-52" transform="translate(266.796875 0)"/>
     <use xlink:href="#ArialMT-41" transform="translate(339.013672 0)"/>
     <use xlink:href="#ArialMT-44" transform="translate(405.712891 0)"/>
     <use xlink:href="#ArialMT-45" transform="translate(477.929688 0)"/>
    </g>
    <!-- 154m² -->
    <g style="fill: #262626" transform="translate(311.763125 467.042625) scale(0.08 -0.08)">
     <use xlink:href="#ArialMT-31"/>
     <use xlink:href="#ArialMT-35" transform="translate(55.615234 0)"/>
     <use xlink:href="#ArialMT-34" transform="translate(111.230469 0)"/>
     <use xlink:href="#ArialMT-6d" transform="translate(166.845703 0)"/>
     <use xlink:href="#ArialMT-b2" transform="translate(250.146484 0)"/>
    </g>
   </g>
  </g>
  <g id="axes_15">
   <g id="patch_16">
    <path d="M 629.754545 536.451587 
L 582.169296 566.21437 
L 477.538384 632.856459 
L 444.845455 582.235742 
L 550.224836 516.278797 
L 598.134274 486.291478 
z
" clip-path="url(#pedec75c07a)" style="stroke: #000000; stroke-linejoin: miter"/>
   </g>
   <g id="text_15">
    <!-- BELGRADE -->
    <g style="fill: #262626" transform="translate(515.514375 467.501729) scale(0.08 -0.08)">
     <use xlink:href="#ArialMT-42"/>
     <use xlink:href="#ArialMT-45" transform="translate(66.699219 0)"/>
     <use xlink:href="#ArialMT-4c" transform="translate(133.398438 0)"/>
     <use xlink:href="#ArialMT-47" transform="translate(189.013672 0)"/>
     <use xlink:href="#ArialMT-52" transform="translate(266.796875 0)"/>
     <use xlink:href="#ArialMT-41" transform="translate(339.013672 0)"/>
     <use xlink:href="#ArialMT-44" transform="translate(405.712891 0)"/>
     <use xlink:href="#ArialMT-45" transform="translate(477.929688 0)"/>
    </g>
    <!-- 233m² -->
    <g style="fill: #262626" transform="translate(525.963125 475.963229) scale(0.08 -0.08)">
     <use xlink:href="#ArialMT-32"/>
     <use xlink:href="#ArialMT-33" transform="translate(55.615234 0)"/>
     <use xlink:href="#ArialMT-33" transform="translate(111.230469 0)"/>
     <use xlink:href="#ArialMT-6d" transform="translate(166.845703 0)"/>
     <use xlink:href="#ArialMT-b2" transform="translate(250.146484 0)"/>
    </g>
   </g>
  </g>
  <g id="axes_16">
   <g id="patch_17">
    <path d="M 720.232584 640.966099 
L 706.253686 625.364591 
L 667.420914 583.17583 
L 725.327061 530.203538 
L 782.227368 478.181838 
L 835.579086 536.741392 
L 805.737374 563.668511 
L 785.666737 541.899718 
L 748.921516 575.482472 
L 768.765874 597.122142 
L 745.413228 618.220485 
z
" clip-path="url(#pdf6142c185)" style="stroke: #000000; stroke-linejoin: miter"/>
   </g>
   <g id="text_16">
    <!-- BELGRADE -->
    <g style="fill: #262626" transform="translate(729.714375 458.581125) scale(0.08 -0.08)">
     <use xlink:href="#ArialMT-42"/>
     <use xlink:href="#ArialMT-45" transform="translate(66.699219 0)"/>
     <use xlink:href="#ArialMT-4c" transform="translate(133.398438 0)"/>
     <use xlink:href="#ArialMT-47" transform="translate(189.013672 0)"/>
     <use xlink:href="#ArialMT-52" transform="translate(266.796875 0)"/>
     <use xlink:href="#ArialMT-41" transform="translate(339.013672 0)"/>
     <use xlink:href="#ArialMT-44" transform="translate(405.712891 0)"/>
     <use xlink:href="#ArialMT-45" transform="translate(477.929688 0)"/>
    </g>
    <!-- 326m² -->
    <g style="fill: #262626" transform="translate(740.163125 467.042625) scale(0.08 -0.08)">
     <use xlink:href="#ArialMT-33"/>
     <use xlink:href="#ArialMT-32" transform="translate(55.615234 0)"/>
     <use xlink:href="#ArialMT-36" transform="translate(111.230469 0)"/>
     <use xlink:href="#ArialMT-6d" transform="translate(166.845703 0)"/>
     <use xlink:href="#ArialMT-b2" transform="translate(250.146484 0)"/>
    </g>
   </g>
  </g>
  <g id="axes_17">
   <g id="patch_18">
    <path d="M 991.176401 479.319341 
L 984.084612 566.778107 
L 978.059828 640.966099 
L 962.088076 638.684765 
L 940.223599 635.564544 
L 944.174767 599.43661 
L 960.263944 601.174827 
L 969.16235 478.181838 
z
" clip-path="url(#p18b76041ab)" style="stroke: #000000; stroke-linejoin: miter"/>
   </g>
   <g id="text_17">
    <!-- BELGRADE -->
    <g style="fill: #262626" transform="translate(943.914375 458.581125) scale(0.08 -0.08)">
     <use xlink:href="#ArialMT-42"/>
     <use xlink:href="#ArialMT-45" transform="translate(66.699219 0)"/>
     <use xlink:href="#ArialMT-4c" transform="translate(133.398438 0)"/>
     <use xlink:href="#ArialMT-47" transform="translate(189.013672 0)"/>
     <use xlink:href="#ArialMT-52" transform="translate(266.796875 0)"/>
     <use xlink:href="#ArialMT-41" transform="translate(339.013672 0)"/>
     <use xlink:href="#ArialMT-44" transform="translate(405.712891 0)"/>
     <use xlink:href="#ArialMT-45" transform="translate(477.929688 0)"/>
    </g>
    <!-- 489m² -->
    <g style="fill: #262626" transform="translate(954.363125 467.042625) scale(0.08 -0.08)">
     <use xlink:href="#ArialMT-34"/>
     <use xlink:href="#ArialMT-38" transform="translate(55.615234 0)"/>
     <use xlink:href="#ArialMT-39" transform="translate(111.230469 0)"/>
     <use xlink:href="#ArialMT-6d" transform="translate(166.845703 0)"/>
     <use xlink:href="#ArialMT-b2" transform="translate(250.146484 0)"/>
    </g>
   </g>
  </g>
  <g id="axes_18">
   <g id="patch_19">
    <path d="M 1109.930737 558.805292 
L 1137.300901 591.296964 
L 1162.486885 621.204515 
L 1168.585929 628.454058 
L 1168.092001 628.879031 
L 1178.934441 640.966099 
L 1192.164128 630.20486 
L 1191.659751 629.65429 
L 1211.037931 613.604477 
L 1212.734963 615.614287 
L 1214.012112 614.552131 
L 1217.205029 618.261116 
L 1217.559058 618.501389 
L 1218.014847 618.718546 
L 1218.55578 618.864893 
L 1219.114437 618.892397 
L 1219.622767 618.848191 
L 1220.114796 618.708708 
L 1226.704847 613.232737 
L 1232.290425 608.55902 
L 1232.634001 607.823749 
L 1232.739239 607.277231 
L 1232.709322 606.68223 
L 1232.577171 606.181719 
L 1232.326484 605.680421 
L 1229.237066 601.686622 
L 1231.127463 600.081321 
L 1229.616068 598.167915 
L 1248.625252 581.568381 
L 1249.314163 582.381887 
L 1261.219588 572.111419 
L 1250.228522 559.452418 
L 1249.513039 560.090051 
L 1225.225752 532.544044 
L 1225.872868 532.001127 
L 1223.032573 528.746535 
L 1223.696939 528.156148 
L 1220.873421 524.925459 
L 1218.150874 521.790609 
L 1217.5036 522.357317 
L 1214.865091 519.318193 
L 1214.013506 520.050088 
L 1189.510811 491.812614 
L 1190.243069 491.198888 
L 1179.085169 478.181838 
L 1167.7938 487.790141 
L 1168.146876 488.173161 
L 1139.16017 512.890701 
L 1110.173518 537.584389 
L 1109.820759 537.153785 
L 1098.580412 546.714787 
L 1109.351666 559.301073 
z
" clip-path="url(#pd387c3270b)" style="stroke: #000000; stroke-linejoin: miter"/>
   </g>
   <g id="text_18">
    <!-- BELGRADE -->
    <g style="fill: #262626" transform="translate(1158.114375 458.581125) scale(0.08 -0.08)">
     <use xlink:href="#ArialMT-42"/>
     <use xlink:href="#ArialMT-45" transform="translate(66.699219 0)"/>
     <use xlink:href="#ArialMT-4c" transform="translate(133.398438 0)"/>
     <use xlink:href="#ArialMT-47" transform="translate(189.013672 0)"/>
     <use xlink:href="#ArialMT-52" transform="translate(266.796875 0)"/>
     <use xlink:href="#ArialMT-41" transform="translate(339.013672 0)"/>
     <use xlink:href="#ArialMT-44" transform="translate(405.712891 0)"/>
     <use xlink:href="#ArialMT-45" transform="translate(477.929688 0)"/>
    </g>
    <!-- 2888m² -->
    <g style="fill: #262626" transform="translate(1166.33875 467.042625) scale(0.08 -0.08)">
     <use xlink:href="#ArialMT-32"/>
     <use xlink:href="#ArialMT-38" transform="translate(55.615234 0)"/>
     <use xlink:href="#ArialMT-38" transform="translate(111.230469 0)"/>
     <use xlink:href="#ArialMT-38" transform="translate(166.845703 0)"/>
     <use xlink:href="#ArialMT-6d" transform="translate(222.460938 0)"/>
     <use xlink:href="#ArialMT-b2" transform="translate(305.761719 0)"/>
    </g>
   </g>
  </g>
  <g id="axes_19">
   <g id="patch_20">
    <path d="M 35.869163 806.549763 
L 106.712758 685.156526 
L 181.930837 724.410908 
L 112.549682 847.940787 
z
" clip-path="url(#p00b8fe5bc3)" style="stroke: #000000; stroke-linejoin: miter"/>
   </g>
   <g id="text_19">
    <!-- TORINO -->
    <g style="fill: #262626" transform="translate(93.415625 665.555812) scale(0.08 -0.08)">
     <defs>
      <path id="ArialMT-54" d="M 1659 0 
L 1659 4041 
L 150 4041 
L 150 4581 
L 3781 4581 
L 3781 4041 
L 2266 4041 
L 2266 0 
L 1659 0 
z
" transform="scale(0.015625)"/>
     </defs>
     <use xlink:href="#ArialMT-54"/>
     <use xlink:href="#ArialMT-4f" transform="translate(59.333984 0)"/>
     <use xlink:href="#ArialMT-52" transform="translate(137.117188 0)"/>
     <use xlink:href="#ArialMT-49" transform="translate(209.333984 0)"/>
     <use xlink:href="#ArialMT-4e" transform="translate(237.117188 0)"/>
     <use xlink:href="#ArialMT-4f" transform="translate(309.333984 0)"/>
    </g>
    <!-- 3m² -->
    <g style="fill: #262626" transform="translate(102.011875 674.017312) scale(0.08 -0.08)">
     <use xlink:href="#ArialMT-33"/>
     <use xlink:href="#ArialMT-6d" transform="translate(55.615234 0)"/>
     <use xlink:href="#ArialMT-b2" transform="translate(138.916016 0)"/>
    </g>
   </g>
  </g>
  <g id="axes_20">
   <g id="patch_21">
    <path d="M 296.951337 685.156526 
L 405.610487 743.416734 
L 376.971352 796.508142 
L 349.24877 847.940787 
L 240.589513 789.680504 
L 272.594117 730.228174 
z
" clip-path="url(#pa5beb1018b)" style="stroke: #000000; stroke-linejoin: miter"/>
   </g>
   <g id="text_20">
    <!-- TORINO -->
    <g style="fill: #262626" transform="translate(307.615625 665.555812) scale(0.08 -0.08)">
     <use xlink:href="#ArialMT-54"/>
     <use xlink:href="#ArialMT-4f" transform="translate(59.333984 0)"/>
     <use xlink:href="#ArialMT-52" transform="translate(137.117188 0)"/>
     <use xlink:href="#ArialMT-49" transform="translate(209.333984 0)"/>
     <use xlink:href="#ArialMT-4e" transform="translate(237.117188 0)"/>
     <use xlink:href="#ArialMT-4f" transform="translate(309.333984 0)"/>
    </g>
    <!-- 93m² -->
    <g style="fill: #262626" transform="translate(313.9875 674.017312) scale(0.08 -0.08)">
     <use xlink:href="#ArialMT-39"/>
     <use xlink:href="#ArialMT-33" transform="translate(55.615234 0)"/>
     <use xlink:href="#ArialMT-6d" transform="translate(111.230469 0)"/>
     <use xlink:href="#ArialMT-b2" transform="translate(194.53125 0)"/>
    </g>
   </g>
  </g>
  <g id="axes_21">
   <g id="patch_22">
    <path d="M 624.839592 709.706369 
L 563.561019 686.752313 
L 556.801754 685.156526 
L 543.288001 685.266861 
L 533.067207 687.907141 
L 526.174281 690.931744 
L 517.058598 697.552203 
L 510.370788 705.945623 
L 506.567189 713.230324 
L 449.760408 821.679376 
L 453.411557 820.17041 
L 462.931989 817.436205 
L 467.251306 818.001756 
L 496.688867 831.440404 
L 503.45054 818.508164 
L 554.625391 844.104483 
L 562.108646 847.940787 
L 575.750254 821.995665 
L 620.004041 737.280578 
L 612.235123 733.026907 
z
" clip-path="url(#p24245ccb2a)" style="stroke: #000000; stroke-linejoin: miter"/>
   </g>
   <g id="text_21">
    <!-- TORINO -->
    <g style="fill: #262626" transform="translate(521.815625 665.555812) scale(0.08 -0.08)">
     <use xlink:href="#ArialMT-54"/>
     <use xlink:href="#ArialMT-4f" transform="translate(59.333984 0)"/>
     <use xlink:href="#ArialMT-52" transform="translate(137.117188 0)"/>
     <use xlink:href="#ArialMT-49" transform="translate(209.333984 0)"/>
     <use xlink:href="#ArialMT-4e" transform="translate(237.117188 0)"/>
     <use xlink:href="#ArialMT-4f" transform="translate(309.333984 0)"/>
    </g>
    <!-- 300m² -->
    <g style="fill: #262626" transform="translate(525.963125 674.017312) scale(0.08 -0.08)">
     <defs>
      <path id="ArialMT-30" d="M 266 2259 
Q 266 3072 433 3567 
Q 600 4063 929 4331 
Q 1259 4600 1759 4600 
Q 2128 4600 2406 4451 
Q 2684 4303 2865 4023 
Q 3047 3744 3150 3342 
Q 3253 2941 3253 2259 
Q 3253 1453 3087 958 
Q 2922 463 2592 192 
Q 2263 -78 1759 -78 
Q 1097 -78 719 397 
Q 266 969 266 2259 
z
M 844 2259 
Q 844 1131 1108 757 
Q 1372 384 1759 384 
Q 2147 384 2411 759 
Q 2675 1134 2675 2259 
Q 2675 3391 2411 3762 
Q 2147 4134 1753 4134 
Q 1366 4134 1134 3806 
Q 844 3388 844 2259 
z
" transform="scale(0.015625)"/>
     </defs>
     <use xlink:href="#ArialMT-33"/>
     <use xlink:href="#ArialMT-30" transform="translate(55.615234 0)"/>
     <use xlink:href="#ArialMT-30" transform="translate(111.230469 0)"/>
     <use xlink:href="#ArialMT-6d" transform="translate(166.845703 0)"/>
     <use xlink:href="#ArialMT-b2" transform="translate(250.146484 0)"/>
    </g>
   </g>
  </g>
  <g id="axes_22">
   <g id="patch_23">
    <path d="M 809.770626 839.237471 
L 659.045455 758.256937 
L 692.809098 693.859842 
L 756.704233 728.365068 
L 765.537246 712.216918 
L 796.175063 729.392967 
L 787.935216 745.164181 
L 843.954545 775.454537 
z
" clip-path="url(#p2b58068aa3)" style="stroke: #000000; stroke-linejoin: miter"/>
   </g>
   <g id="text_22">
    <!-- TORINO -->
    <g style="fill: #262626" transform="translate(736.015625 675.12946) scale(0.08 -0.08)">
     <use xlink:href="#ArialMT-54"/>
     <use xlink:href="#ArialMT-4f" transform="translate(59.333984 0)"/>
     <use xlink:href="#ArialMT-52" transform="translate(137.117188 0)"/>
     <use xlink:href="#ArialMT-49" transform="translate(209.333984 0)"/>
     <use xlink:href="#ArialMT-4e" transform="translate(237.117188 0)"/>
     <use xlink:href="#ArialMT-4f" transform="translate(309.333984 0)"/>
    </g>
    <!-- 529m² -->
    <g style="fill: #262626" transform="translate(740.163125 683.59096) scale(0.08 -0.08)">
     <use xlink:href="#ArialMT-35"/>
     <use xlink:href="#ArialMT-32" transform="translate(55.615234 0)"/>
     <use xlink:href="#ArialMT-39" transform="translate(111.230469 0)"/>
     <use xlink:href="#ArialMT-6d" transform="translate(166.845703 0)"/>
     <use xlink:href="#ArialMT-b2" transform="translate(250.146484 0)"/>
    </g>
   </g>
  </g>
  <g id="axes_23">
   <g id="patch_24">
    <path d="M 956.426998 685.156526 
L 1037.498542 729.438703 
L 1019.577512 764.869957 
L 1001.480242 789.887974 
L 996.542157 799.208373 
L 970.114583 847.940787 
L 950.354732 837.10478 
L 954.166437 828.775782 
L 987.404632 766.331638 
L 991.425862 758.772018 
L 953.638432 738.311966 
L 949.543192 745.870375 
L 916.159736 808.138013 
L 912.975105 814.318528 
L 909.204728 812.516369 
L 893.901458 803.772158 
L 898.363568 794.896668 
z
" clip-path="url(#p20c99745dd)" style="stroke: #000000; stroke-linejoin: miter"/>
   </g>
   <g id="text_23">
    <!-- TORINO -->
    <g style="fill: #262626" transform="translate(950.215625 665.555812) scale(0.08 -0.08)">
     <use xlink:href="#ArialMT-54"/>
     <use xlink:href="#ArialMT-4f" transform="translate(59.333984 0)"/>
     <use xlink:href="#ArialMT-52" transform="translate(137.117188 0)"/>
     <use xlink:href="#ArialMT-49" transform="translate(209.333984 0)"/>
     <use xlink:href="#ArialMT-4e" transform="translate(237.117188 0)"/>
     <use xlink:href="#ArialMT-4f" transform="translate(309.333984 0)"/>
    </g>
    <!-- 861m² -->
    <g style="fill: #262626" transform="translate(954.363125 674.017312) scale(0.08 -0.08)">
     <use xlink:href="#ArialMT-38"/>
     <use xlink:href="#ArialMT-36" transform="translate(55.615234 0)"/>
     <use xlink:href="#ArialMT-31" transform="translate(111.230469 0)"/>
     <use xlink:href="#ArialMT-6d" transform="translate(166.845703 0)"/>
     <use xlink:href="#ArialMT-b2" transform="translate(250.146484 0)"/>
    </g>
   </g>
  </g>
  <g id="axes_24">
   <g id="patch_25">
    <path d="M 1240.554185 720.91992 
L 1240.31628 720.806911 
L 1174.322315 845.794089 
L 1174.521743 845.895559 
L 1173.452085 847.940787 
L 1168.162463 845.071664 
L 1118.439357 818.156235 
L 1116.317256 813.123253 
L 1183.605755 685.156526 
L 1238.605563 713.303303 
L 1241.330673 715.028352 
L 1243.482744 715.849163 
z
" clip-path="url(#p5a56b124b3)" style="stroke: #000000; stroke-linejoin: miter"/>
   </g>
   <g id="text_24">
    <!-- TORINO -->
    <g style="fill: #262626" transform="translate(1164.415625 665.555812) scale(0.08 -0.08)">
     <use xlink:href="#ArialMT-54"/>
     <use xlink:href="#ArialMT-4f" transform="translate(59.333984 0)"/>
     <use xlink:href="#ArialMT-52" transform="translate(137.117188 0)"/>
     <use xlink:href="#ArialMT-49" transform="translate(209.333984 0)"/>
     <use xlink:href="#ArialMT-4e" transform="translate(237.117188 0)"/>
     <use xlink:href="#ArialMT-4f" transform="translate(309.333984 0)"/>
    </g>
    <!-- 7471m² -->
    <g style="fill: #262626" transform="translate(1166.33875 674.017312) scale(0.08 -0.08)">
     <use xlink:href="#ArialMT-37"/>
     <use xlink:href="#ArialMT-34" transform="translate(55.615234 0)"/>
     <use xlink:href="#ArialMT-37" transform="translate(111.230469 0)"/>
     <use xlink:href="#ArialMT-31" transform="translate(166.845703 0)"/>
     <use xlink:href="#ArialMT-6d" transform="translate(222.460938 0)"/>
     <use xlink:href="#ArialMT-b2" transform="translate(305.761719 0)"/>
    </g>
   </g>
  </g>
  <g id="text_25">
   <!-- Building Footprint Library (6 per city, 24 total) -->
   <g style="fill: #262626" transform="translate(471.21375 18.8475) scale(0.16 -0.16)">
    <defs>
     <path id="Arial-BoldMT-42" d="M 469 4581 
L 2300 4581 
Q 2844 4581 3111 4536 
Q 3378 4491 3589 4347 
Q 3800 4203 3940 3964 
Q 4081 3725 4081 3428 
Q 4081 3106 3907 2837 
Q 3734 2569 3438 2434 
Q 3856 2313 4081 2019 
Q 4306 1725 4306 1328 
Q 4306 1016 4161 720 
Q 4016 425 3764 248 
Q 3513 72 3144 31 
Q 2913 6 2028 0 
L 469 0 
L 469 4581 
z
M 1394 3819 
L 1394 2759 
L 2000 2759 
Q 2541 2759 2672 2775 
Q 2909 2803 3045 2939 
Q 3181 3075 3181 3297 
Q 3181 3509 3064 3642 
Q 2947 3775 2716 3803 
Q 2578 3819 1925 3819 
L 1394 3819 
z
M 1394 1997 
L 1394 772 
L 2250 772 
Q 2750 772 2884 800 
Q 3091 838 3220 983 
Q 3350 1128 3350 1372 
Q 3350 1578 3250 1722 
Q 3150 1866 2961 1931 
Q 2772 1997 2141 1997 
L 1394 1997 
z
" transform="scale(0.015625)"/>
     <path id="Arial-BoldMT-75" d="M 2644 0 
L 2644 497 
Q 2463 231 2167 78 
Q 1872 -75 1544 -75 
Q 1209 -75 943 72 
Q 678 219 559 484 
Q 441 750 441 1219 
L 441 3319 
L 1319 3319 
L 1319 1794 
Q 1319 1094 1367 936 
Q 1416 778 1544 686 
Q 1672 594 1869 594 
Q 2094 594 2272 717 
Q 2450 841 2515 1023 
Q 2581 1206 2581 1919 
L 2581 3319 
L 3459 3319 
L 3459 0 
L 2644 0 
z
" transform="scale(0.015625)"/>
     <path id="Arial-BoldMT-69" d="M 459 3769 
L 459 4581 
L 1338 4581 
L 1338 3769 
L 459 3769 
z
M 459 0 
L 459 3319 
L 1338 3319 
L 1338 0 
L 459 0 
z
" transform="scale(0.015625)"/>
     <path id="Arial-BoldMT-6c" d="M 459 0 
L 459 4581 
L 1338 4581 
L 1338 0 
L 459 0 
z
" transform="scale(0.015625)"/>
     <path id="Arial-BoldMT-64" d="M 3503 0 
L 2688 0 
L 2688 488 
Q 2484 203 2207 64 
Q 1931 -75 1650 -75 
Q 1078 -75 670 386 
Q 263 847 263 1672 
Q 263 2516 659 2955 
Q 1056 3394 1663 3394 
Q 2219 3394 2625 2931 
L 2625 4581 
L 3503 4581 
L 3503 0 
z
M 1159 1731 
Q 1159 1200 1306 963 
Q 1519 619 1900 619 
Q 2203 619 2415 876 
Q 2628 1134 2628 1647 
Q 2628 2219 2422 2470 
Q 2216 2722 1894 2722 
Q 1581 2722 1370 2473 
Q 1159 2225 1159 1731 
z
" transform="scale(0.015625)"/>
     <path id="Arial-BoldMT-6e" d="M 3478 0 
L 2600 0 
L 2600 1694 
Q 2600 2231 2544 2389 
Q 2488 2547 2361 2634 
Q 2234 2722 2056 2722 
Q 1828 2722 1647 2597 
Q 1466 2472 1398 2265 
Q 1331 2059 1331 1503 
L 1331 0 
L 453 0 
L 453 3319 
L 1269 3319 
L 1269 2831 
Q 1703 3394 2363 3394 
Q 2653 3394 2893 3289 
Q 3134 3184 3257 3021 
Q 3381 2859 3429 2653 
Q 3478 2447 3478 2063 
L 3478 0 
z
" transform="scale(0.015625)"/>
     <path id="Arial-BoldMT-67" d="M 378 -219 
L 1381 -341 
Q 1406 -516 1497 -581 
Q 1622 -675 1891 -675 
Q 2234 -675 2406 -572 
Q 2522 -503 2581 -350 
Q 2622 -241 2622 53 
L 2622 538 
Q 2228 0 1628 0 
Q 959 0 569 566 
Q 263 1013 263 1678 
Q 263 2513 664 2953 
Q 1066 3394 1663 3394 
Q 2278 3394 2678 2853 
L 2678 3319 
L 3500 3319 
L 3500 341 
Q 3500 -247 3403 -537 
Q 3306 -828 3131 -993 
Q 2956 -1159 2664 -1253 
Q 2372 -1347 1925 -1347 
Q 1081 -1347 728 -1058 
Q 375 -769 375 -325 
Q 375 -281 378 -219 
z
M 1163 1728 
Q 1163 1200 1367 954 
Q 1572 709 1872 709 
Q 2194 709 2416 961 
Q 2638 1213 2638 1706 
Q 2638 2222 2425 2472 
Q 2213 2722 1888 2722 
Q 1572 2722 1367 2476 
Q 1163 2231 1163 1728 
z
" transform="scale(0.015625)"/>
     <path id="Arial-BoldMT-20" transform="scale(0.015625)"/>
     <path id="Arial-BoldMT-46" d="M 472 0 
L 472 4581 
L 3613 4581 
L 3613 3806 
L 1397 3806 
L 1397 2722 
L 3309 2722 
L 3309 1947 
L 1397 1947 
L 1397 0 
L 472 0 
z
" transform="scale(0.015625)"/>
     <path id="Arial-BoldMT-6f" d="M 256 1706 
Q 256 2144 472 2553 
Q 688 2963 1083 3178 
Q 1478 3394 1966 3394 
Q 2719 3394 3200 2905 
Q 3681 2416 3681 1669 
Q 3681 916 3195 420 
Q 2709 -75 1972 -75 
Q 1516 -75 1102 131 
Q 688 338 472 736 
Q 256 1134 256 1706 
z
M 1156 1659 
Q 1156 1166 1390 903 
Q 1625 641 1969 641 
Q 2313 641 2545 903 
Q 2778 1166 2778 1666 
Q 2778 2153 2545 2415 
Q 2313 2678 1969 2678 
Q 1625 2678 1390 2415 
Q 1156 2153 1156 1659 
z
" transform="scale(0.015625)"/>
     <path id="Arial-BoldMT-74" d="M 1981 3319 
L 1981 2619 
L 1381 2619 
L 1381 1281 
Q 1381 875 1398 808 
Q 1416 741 1477 697 
Q 1538 653 1625 653 
Q 1747 653 1978 738 
L 2053 56 
Q 1747 -75 1359 -75 
Q 1122 -75 931 4 
Q 741 84 652 211 
Q 563 338 528 553 
Q 500 706 500 1172 
L 500 2619 
L 97 2619 
L 97 3319 
L 500 3319 
L 500 3978 
L 1381 4491 
L 1381 3319 
L 1981 3319 
z
" transform="scale(0.015625)"/>
     <path id="Arial-BoldMT-70" d="M 434 3319 
L 1253 3319 
L 1253 2831 
Q 1413 3081 1684 3237 
Q 1956 3394 2288 3394 
Q 2866 3394 3269 2941 
Q 3672 2488 3672 1678 
Q 3672 847 3265 386 
Q 2859 -75 2281 -75 
Q 2006 -75 1782 34 
Q 1559 144 1313 409 
L 1313 -1263 
L 434 -1263 
L 434 3319 
z
M 1303 1716 
Q 1303 1156 1525 889 
Q 1747 622 2066 622 
Q 2372 622 2575 867 
Q 2778 1113 2778 1672 
Q 2778 2194 2568 2447 
Q 2359 2700 2050 2700 
Q 1728 2700 1515 2451 
Q 1303 2203 1303 1716 
z
" transform="scale(0.015625)"/>
     <path id="Arial-BoldMT-72" d="M 1300 0 
L 422 0 
L 422 3319 
L 1238 3319 
L 1238 2847 
Q 1447 3181 1614 3287 
Q 1781 3394 1994 3394 
Q 2294 3394 2572 3228 
L 2300 2463 
Q 2078 2606 1888 2606 
Q 1703 2606 1575 2504 
Q 1447 2403 1373 2137 
Q 1300 1872 1300 1025 
L 1300 0 
z
" transform="scale(0.015625)"/>
     <path id="Arial-BoldMT-4c" d="M 491 0 
L 491 4544 
L 1416 4544 
L 1416 772 
L 3716 772 
L 3716 0 
L 491 0 
z
" transform="scale(0.015625)"/>
     <path id="Arial-BoldMT-62" d="M 422 0 
L 422 4581 
L 1300 4581 
L 1300 2931 
Q 1706 3394 2263 3394 
Q 2869 3394 3266 2955 
Q 3663 2516 3663 1694 
Q 3663 844 3258 384 
Q 2853 -75 2275 -75 
Q 1991 -75 1714 67 
Q 1438 209 1238 488 
L 1238 0 
L 422 0 
z
M 1294 1731 
Q 1294 1216 1456 969 
Q 1684 619 2063 619 
Q 2353 619 2558 867 
Q 2763 1116 2763 1650 
Q 2763 2219 2556 2470 
Q 2350 2722 2028 2722 
Q 1713 2722 1503 2476 
Q 1294 2231 1294 1731 
z
" transform="scale(0.015625)"/>
     <path id="Arial-BoldMT-61" d="M 1116 2306 
L 319 2450 
Q 453 2931 781 3162 
Q 1109 3394 1756 3394 
Q 2344 3394 2631 3255 
Q 2919 3116 3036 2902 
Q 3153 2688 3153 2116 
L 3144 1091 
Q 3144 653 3186 445 
Q 3228 238 3344 0 
L 2475 0 
Q 2441 88 2391 259 
Q 2369 338 2359 363 
Q 2134 144 1878 34 
Q 1622 -75 1331 -75 
Q 819 -75 523 203 
Q 228 481 228 906 
Q 228 1188 362 1408 
Q 497 1628 739 1745 
Q 981 1863 1438 1950 
Q 2053 2066 2291 2166 
L 2291 2253 
Q 2291 2506 2166 2614 
Q 2041 2722 1694 2722 
Q 1459 2722 1328 2630 
Q 1197 2538 1116 2306 
z
M 2291 1594 
Q 2122 1538 1756 1459 
Q 1391 1381 1278 1306 
Q 1106 1184 1106 997 
Q 1106 813 1243 678 
Q 1381 544 1594 544 
Q 1831 544 2047 700 
Q 2206 819 2256 991 
Q 2291 1103 2291 1419 
L 2291 1594 
z
" transform="scale(0.015625)"/>
     <path id="Arial-BoldMT-79" d="M 44 3319 
L 978 3319 
L 1772 963 
L 2547 3319 
L 3456 3319 
L 2284 125 
L 2075 -453 
Q 1959 -744 1854 -897 
Q 1750 -1050 1614 -1145 
Q 1478 -1241 1279 -1294 
Q 1081 -1347 831 -1347 
Q 578 -1347 334 -1294 
L 256 -606 
Q 463 -647 628 -647 
Q 934 -647 1081 -467 
Q 1228 -288 1306 -9 
L 44 3319 
z
" transform="scale(0.015625)"/>
     <path id="Arial-BoldMT-28" d="M 1916 -1347 
L 1313 -1347 
Q 834 -625 584 153 
Q 334 931 334 1659 
Q 334 2563 644 3369 
Q 913 4069 1325 4659 
L 1925 4659 
Q 1497 3713 1336 3048 
Q 1175 2384 1175 1641 
Q 1175 1128 1270 590 
Q 1366 53 1531 -431 
Q 1641 -750 1916 -1347 
z
" transform="scale(0.015625)"/>
     <path id="Arial-BoldMT-36" d="M 3247 3459 
L 2397 3366 
Q 2366 3628 2234 3753 
Q 2103 3878 1894 3878 
Q 1616 3878 1423 3628 
Q 1231 3378 1181 2588 
Q 1509 2975 1997 2975 
Q 2547 2975 2939 2556 
Q 3331 2138 3331 1475 
Q 3331 772 2918 347 
Q 2506 -78 1859 -78 
Q 1166 -78 719 461 
Q 272 1000 272 2228 
Q 272 3488 737 4044 
Q 1203 4600 1947 4600 
Q 2469 4600 2811 4308 
Q 3153 4016 3247 3459 
z
M 1256 1544 
Q 1256 1116 1453 883 
Q 1650 650 1903 650 
Q 2147 650 2309 840 
Q 2472 1031 2472 1466 
Q 2472 1913 2297 2120 
Q 2122 2328 1859 2328 
Q 1606 2328 1431 2129 
Q 1256 1931 1256 1544 
z
" transform="scale(0.015625)"/>
     <path id="Arial-BoldMT-65" d="M 2381 1056 
L 3256 909 
Q 3088 428 2723 176 
Q 2359 -75 1813 -75 
Q 947 -75 531 491 
Q 203 944 203 1634 
Q 203 2459 634 2926 
Q 1066 3394 1725 3394 
Q 2466 3394 2894 2905 
Q 3322 2416 3303 1406 
L 1103 1406 
Q 1113 1016 1316 798 
Q 1519 581 1822 581 
Q 2028 581 2168 693 
Q 2309 806 2381 1056 
z
M 2431 1944 
Q 2422 2325 2234 2523 
Q 2047 2722 1778 2722 
Q 1491 2722 1303 2513 
Q 1116 2303 1119 1944 
L 2431 1944 
z
" transform="scale(0.015625)"/>
     <path id="Arial-BoldMT-63" d="M 3353 2338 
L 2488 2181 
Q 2444 2441 2289 2572 
Q 2134 2703 1888 2703 
Q 1559 2703 1364 2476 
Q 1169 2250 1169 1719 
Q 1169 1128 1367 884 
Q 1566 641 1900 641 
Q 2150 641 2309 783 
Q 2469 925 2534 1272 
L 3397 1125 
Q 3263 531 2881 228 
Q 2500 -75 1859 -75 
Q 1131 -75 698 384 
Q 266 844 266 1656 
Q 266 2478 700 2936 
Q 1134 3394 1875 3394 
Q 2481 3394 2839 3133 
Q 3197 2872 3353 2338 
z
" transform="scale(0.015625)"/>
     <path id="Arial-BoldMT-2c" d="M 438 878 
L 1316 878 
L 1316 250 
Q 1316 -131 1250 -351 
Q 1184 -572 1001 -747 
Q 819 -922 538 -1022 
L 366 -659 
Q 631 -572 743 -419 
Q 856 -266 863 0 
L 438 0 
L 438 878 
z
" transform="scale(0.015625)"/>
     <path id="Arial-BoldMT-32" d="M 3238 816 
L 3238 0 
L 159 0 
Q 209 463 459 877 
Q 709 1291 1447 1975 
Q 2041 2528 2175 2725 
Q 2356 2997 2356 3263 
Q 2356 3556 2198 3714 
Q 2041 3872 1763 3872 
Q 1488 3872 1325 3706 
Q 1163 3541 1138 3156 
L 263 3244 
Q 341 3969 753 4284 
Q 1166 4600 1784 4600 
Q 2463 4600 2850 4234 
Q 3238 3869 3238 3325 
Q 3238 3016 3127 2736 
Q 3016 2456 2775 2150 
Q 2616 1947 2200 1565 
Q 1784 1184 1673 1059 
Q 1563 934 1494 816 
L 3238 816 
z
" transform="scale(0.015625)"/>
     <path id="Arial-BoldMT-34" d="M 1994 0 
L 1994 922 
L 119 922 
L 119 1691 
L 2106 4600 
L 2844 4600 
L 2844 1694 
L 3413 1694 
L 3413 922 
L 2844 922 
L 2844 0 
L 1994 0 
z
M 1994 1694 
L 1994 3259 
L 941 1694 
L 1994 1694 
z
" transform="scale(0.015625)"/>
     <path id="Arial-BoldMT-29" d="M 216 -1347 
Q 475 -791 581 -494 
Q 688 -197 778 190 
Q 869 578 912 926 
Q 956 1275 956 1641 
Q 956 2384 797 3048 
Q 638 3713 209 4659 
L 806 4659 
Q 1278 3988 1539 3234 
Q 1800 2481 1800 1706 
Q 1800 1053 1594 306 
Q 1359 -531 822 -1347 
L 216 -1347 
z
" transform="scale(0.015625)"/>
    </defs>
    <use xlink:href="#Arial-BoldMT-42"/>
    <use xlink:href="#Arial-BoldMT-75" transform="translate(72.216797 0)"/>
    <use xlink:href="#Arial-BoldMT-69" transform="translate(133.300781 0)"/>
    <use xlink:href="#Arial-BoldMT-6c" transform="translate(161.083984 0)"/>
    <use xlink:href="#Arial-BoldMT-64" transform="translate(188.867188 0)"/>
    <use xlink:href="#Arial-BoldMT-69" transform="translate(249.951172 0)"/>
    <use xlink:href="#Arial-BoldMT-6e" transform="translate(277.734375 0)"/>
    <use xlink:href="#Arial-BoldMT-67" transform="translate(338.818359 0)"/>
    <use xlink:href="#Arial-BoldMT-20" transform="translate(399.902344 0)"/>
    <use xlink:href="#Arial-BoldMT-46" transform="translate(427.685547 0)"/>
    <use xlink:href="#Arial-BoldMT-6f" transform="translate(488.769531 0)"/>
    <use xlink:href="#Arial-BoldMT-6f" transform="translate(549.853516 0)"/>
    <use xlink:href="#Arial-BoldMT-74" transform="translate(610.9375 0)"/>
    <use xlink:href="#Arial-BoldMT-70" transform="translate(644.238281 0)"/>
    <use xlink:href="#Arial-BoldMT-72" transform="translate(705.322266 0)"/>
    <use xlink:href="#Arial-BoldMT-69" transform="translate(744.238281 0)"/>
    <use xlink:href="#Arial-BoldMT-6e" transform="translate(772.021484 0)"/>
    <use xlink:href="#Arial-BoldMT-74" transform="translate(833.105469 0)"/>
    <use xlink:href="#Arial-BoldMT-20" transform="translate(866.40625 0)"/>
    <use xlink:href="#Arial-BoldMT-4c" transform="translate(894.189453 0)"/>
    <use xlink:href="#Arial-BoldMT-69" transform="translate(955.273438 0)"/>
    <use xlink:href="#Arial-BoldMT-62" transform="translate(983.056641 0)"/>
    <use xlink:href="#Arial-BoldMT-72" transform="translate(1044.140625 0)"/>
    <use xlink:href="#Arial-BoldMT-61" transform="translate(1083.056641 0)"/>
    <use xlink:href="#Arial-BoldMT-72" transform="translate(1138.671875 0)"/>
    <use xlink:href="#Arial-BoldMT-79" transform="translate(1177.587891 0)"/>
    <use xlink:href="#Arial-BoldMT-20" transform="translate(1233.203125 0)"/>
    <use xlink:href="#Arial-BoldMT-28" transform="translate(1260.986328 0)"/>
    <use xlink:href="#Arial-BoldMT-36" transform="translate(1294.287109 0)"/>
    <use xlink:href="#Arial-BoldMT-20" transform="translate(1349.902344 0)"/>
    <use xlink:href="#Arial-BoldMT-70" transform="translate(1377.685547 0)"/>
    <use xlink:href="#Arial-BoldMT-65" transform="translate(1438.769531 0)"/>
    <use xlink:href="#Arial-BoldMT-72" transform="translate(1494.384766 0)"/>
    <use xlink:href="#Arial-BoldMT-20" transform="translate(1533.300781 0)"/>
    <use xlink:href="#Arial-BoldMT-63" transform="translate(1561.083984 0)"/>
    <use xlink:href="#Arial-BoldMT-69" transform="translate(1616.699219 0)"/>
    <use xlink:href="#Arial-BoldMT-74" transform="translate(1644.482422 0)"/>
    <use xlink:href="#Arial-BoldMT-79" transform="translate(1677.783203 0)"/>
    <use xlink:href="#Arial-BoldMT-2c" transform="translate(1726.023438 0)"/>
    <use xlink:href="#Arial-BoldMT-20" transform="translate(1753.806641 0)"/>
    <use xlink:href="#Arial-BoldMT-32" transform="translate(1781.589844 0)"/>
    <use xlink:href="#Arial-BoldMT-34" transform="translate(1837.205078 0)"/>
    <use xlink:href="#Arial-BoldMT-20" transform="translate(1892.820312 0)"/>
    <use xlink:href="#Arial-BoldMT-74" transform="translate(1920.603516 0)"/>
    <use xlink:href="#Arial-BoldMT-6f" transform="translate(1953.904297 0)"/>
    <use xlink:href="#Arial-BoldMT-74" transform="translate(2014.988281 0)"/>
    <use xlink:href="#Arial-BoldMT-61" transform="translate(2048.289062 0)"/>
    <use xlink:href="#Arial-BoldMT-6c" transform="translate(2103.904297 0)"/>
    <use xlink:href="#Arial-BoldMT-29" transform="translate(2131.6875 0)"/>
   </g>
  </g>
 </g>
 <defs>
  <clipPath id="pc61d7e2bb1">
   <rect x="7.2" y="103.141815" width="203.4" height="84.965558"/>
  </clipPath>
  <clipPath id="p425683cd78">
   <rect x="221.4" y="83.056597" width="203.4" height="125.135994"/>
  </clipPath>
  <clipPath id="pd23e969d06">
   <rect x="465.514417" y="56.09325" width="143.571167" height="179.062687"/>
  </clipPath>
  <clipPath id="p7828642ebb">
   <rect x="657.261021" y="56.09325" width="188.477958" height="179.062687"/>
  </clipPath>
  <clipPath id="paf234315f4">
   <rect x="864" y="88.740057" width="203.4" height="113.769074"/>
  </clipPath>
  <clipPath id="pc4acd4eda5">
   <rect x="1078.2" y="81.424471" width="203.4" height="128.400246"/>
  </clipPath>
  <clipPath id="p911ac9349e">
   <rect x="37.529687" y="263.067937" width="142.740627" height="179.062687"/>
  </clipPath>
  <clipPath id="p7e42a3394f">
   <rect x="254.116011" y="263.067937" width="137.967977" height="179.062687"/>
  </clipPath>
  <clipPath id="pa203c71e19">
   <rect x="462.575201" y="263.067937" width="149.449597" height="179.062687"/>
  </clipPath>
  <clipPath id="p10524afddc">
   <rect x="683.251744" y="263.067937" width="136.496512" height="179.062687"/>
  </clipPath>
  <clipPath id="p1c0cf66b13">
   <rect x="864" y="299.215019" width="203.4" height="106.768525"/>
  </clipPath>
  <clipPath id="p5ea73dfead">
   <rect x="1080.453482" y="263.067937" width="198.893036" height="179.062687"/>
  </clipPath>
  <clipPath id="pdea1c41a85">
   <rect x="30.692937" y="470.042625" width="156.414127" height="179.062687"/>
  </clipPath>
  <clipPath id="pf90273dfd6">
   <rect x="234.714551" y="470.042625" width="176.770897" height="179.062687"/>
  </clipPath>
  <clipPath id="pedec75c07a">
   <rect x="435.6" y="478.963229" width="203.4" height="161.221479"/>
  </clipPath>
  <clipPath id="pdf6142c185">
   <rect x="659.013005" y="470.042625" width="184.97399" height="179.062687"/>
  </clipPath>
  <clipPath id="p18b76041ab">
   <rect x="937.675959" y="470.042625" width="56.048083" height="179.062687"/>
  </clipPath>
  <clipPath id="pd387c3270b">
   <rect x="1090.448453" y="470.042625" width="178.903094" height="179.062687"/>
  </clipPath>
  <clipPath id="p00b8fe5bc3">
   <rect x="28.56608" y="677.017312" width="160.667841" height="179.062687"/>
  </clipPath>
  <clipPath id="pa5beb1018b">
   <rect x="232.338465" y="677.017312" width="181.523071" height="179.062687"/>
  </clipPath>
  <clipPath id="p24245ccb2a">
   <rect x="441.006449" y="677.017312" width="192.587102" height="179.062687"/>
  </clipPath>
  <clipPath id="p2b58068aa3">
   <rect x="649.8" y="686.59096" width="203.4" height="159.915392"/>
  </clipPath>
  <clipPath id="p20c99745dd">
   <rect x="886.721604" y="677.017312" width="157.956793" height="179.062687"/>
  </clipPath>
  <clipPath id="p5a56b124b3">
   <rect x="1109.958982" y="677.017312" width="139.882037" height="179.062687"/>
  </clipPath>
 </defs>
</svg>
