<?xml version="1.0" encoding="utf-8" standalone="no"?>
<!DOCTYPE svg PUBLIC "-//W3C//DTD SVG 1.1//EN"
  "http://www.w3.org/Graphics/SVG/1.1/DTD/svg11.dtd">
<svg xmlns:xlink="http://www.w3.org/1999/xlink" width="709.683343pt" height="584.862556pt" viewBox="0 0 709.683343 584.862556" xmlns="http://www.w3.org/2000/svg" version="1.1">
 <metadata>
  <rdf:RDF xmlns:dc="http://purl.org/dc/elements/1.1/" xmlns:cc="http://creativecommons.org/ns#" xmlns:rdf="http://www.w3.org/1999/02/22-rdf-syntax-ns#">
   <cc:Work>
    <dc:type rdf:resource="http://purl.org/dc/dcmitype/StillImage"/>
    <dc:date>2025-12-30T20:59:06.553534</dc:date>
    <dc:format>image/svg+xml</dc:format>
    <dc:creator>
     <cc:Agent>
      <dc:title>Matplotlib v3.10.8, https://matplotlib.org/</dc:title>
     </cc:Agent>
    </dc:creator>
   </cc:Work>
  </rdf:RDF>
 </metadata>
 <defs>
  <style type="text/css">*{stroke-linejoin: round; stroke-linecap: butt}</style>
 </defs>
 <g id="figure_1">
  <g id="patch_1">
   <path d="M 0 584.862556 
L 709.683343 584.862556 
L 709.683343 0 
L 0 0 
z
" style="fill: #ffffff"/>
  </g>
  <g id="axes_1">
   <g id="patch_2">
    <path d="M 552.0451 314.076486 
C 552.0451 279.837683 545.300803 245.931809 532.19818 214.29928 
C 519.095557 182.666751 499.889422 153.922739 475.678933 129.712249 
C 451.468443 105.501759 422.724431 86.295624 391.091901 73.193001 
C 359.459372 60.090379 325.553498 53.346081 291.314695 53.346081 
C 257.075892 53.346081 223.170018 60.090379 191.537488 73.193001 
C 159.904959 86.295624 131.160947 105.501759 106.950457 129.712249 
C 82.739967 153.922739 63.533833 182.666751 50.43121 214.29928 
C 37.328587 245.931809 30.584289 279.837683 30.584289 314.076486 
C 30.584289 348.31529 37.328587 382.221163 50.43121 413.853693 
C 63.533833 445.486222 82.739967 474.230234 106.950457 498.440724 
C 131.160947 522.651214 159.904959 541.857349 191.537488 554.959971 
C 223.170018 568.062594 257.075892 574.806892 291.314695 574.806892 
C 325.553498 574.806892 359.459372 568.062594 391.091901 554.959971 
C 422.724431 541.857349 451.468443 522.651214 475.678933 498.440724 
C 499.889422 474.230234 519.095557 445.486222 532.19818 413.853693 
C 545.300803 382.221163 552.0451 348.31529 552.0451 314.076486 
M 291.314695 314.076486 
C 291.314695 314.076486 291.314695 314.076486 291.314695 314.076486 
C 291.314695 314.076486 291.314695 314.076486 291.314695 314.076486 
C 291.314695 314.076486 291.314695 314.076486 291.314695 314.076486 
C 291.314695 314.076486 291.314695 314.076486 291.314695 314.076486 
C 291.314695 314.076486 291.314695 314.076486 291.314695 314.076486 
C 291.314695 314.076486 291.314695 314.076486 291.314695 314.076486 
C 291.314695 314.076486 291.314695 314.076486 291.314695 314.076486 
C 291.314695 314.076486 291.314695 314.076486 291.314695 314.076486 
C 291.314695 314.076486 291.314695 314.076486 291.314695 314.076486 
C 291.314695 314.076486 291.314695 314.076486 291.314695 314.076486 
C 291.314695 314.076486 291.314695 314.076486 291.314695 314.076486 
C 291.314695 314.076486 291.314695 314.076486 291.314695 314.076486 
C 291.314695 314.076486 291.314695 314.076486 291.314695 314.076486 
C 291.314695 314.076486 291.314695 314.076486 291.314695 314.076486 
C 291.314695 314.076486 291.314695 314.076486 291.314695 314.076486 
C 291.314695 314.076486 291.314695 314.076486 291.314695 314.076486 
z
" style="fill: #eaeaf2"/>
   </g>
   <g id="matplotlib.axis_1">
    <g id="xtick_1">
     <g id="line2d_1">
      <path d="M 291.314695 314.076486 
L 552.0451 314.076486 
" clip-path="url(#pf0f6e61ce0)" style="fill: none; stroke: #ffffff; stroke-opacity: 0.3; stroke-width: 1.5; stroke-linecap: round"/>
     </g>
     <g id="text_1">
      <!-- Node Integration -->
      <g style="fill: #262626" transform="translate(514.8826 317.108361) scale(0.12 -0.12)">
       <defs>
        <path id="Arial-BoldMT-4e" d="M 475 0 
L 475 4581 
L 1375 4581 
L 3250 1522 
L 3250 4581 
L 4109 4581 
L 4109 0 
L 3181 0 
L 1334 2988 
L 1334 0 
L 475 0 
z
" transform="scale(0.015625)"/>
        <path id="Arial-BoldMT-6f" d="M 256 1706 
Q 256 2144 472 2553 
Q 688 2963 1083 3178 
Q 1478 3394 1966 3394 
Q 2719 3394 3200 2905 
Q 3681 2416 3681 1669 
Q 3681 916 3195 420 
Q 2709 -75 1972 -75 
Q 1516 -75 1102 131 
Q 688 338 472 736 
Q 256 1134 256 1706 
z
M 1156 1659 
Q 1156 1166 1390 903 
Q 1625 641 1969 641 
Q 2313 641 2545 903 
Q 2778 1166 2778 1666 
Q 2778 2153 2545 2415 
Q 2313 2678 1969 2678 
Q 1625 2678 1390 2415 
Q 1156 2153 1156 1659 
z
" transform="scale(0.015625)"/>
        <path id="Arial-BoldMT-64" d="M 3503 0 
L 2688 0 
L 2688 488 
Q 2484 203 2207 64 
Q 1931 -75 1650 -75 
Q 1078 -75 670 386 
Q 263 847 263 1672 
Q 263 2516 659 2955 
Q 1056 3394 1663 3394 
Q 2219 3394 2625 2931 
L 2625 4581 
L 3503 4581 
L 3503 0 
z
M 1159 1731 
Q 1159 1200 1306 963 
Q 1519 619 1900 619 
Q 2203 619 2415 876 
Q 2628 1134 2628 1647 
Q 2628 2219 2422 2470 
Q 2216 2722 1894 2722 
Q 1581 2722 1370 2473 
Q 1159 2225 1159 1731 
z
" transform="scale(0.015625)"/>
        <path id="Arial-BoldMT-65" d="M 2381 1056 
L 3256 909 
Q 3088 428 2723 176 
Q 2359 -75 1813 -75 
Q 947 -75 531 491 
Q 203 944 203 1634 
Q 203 2459 634 2926 
Q 1066 3394 1725 3394 
Q 2466 3394 2894 2905 
Q 3322 2416 3303 1406 
L 1103 1406 
Q 1113 1016 1316 798 
Q 1519 581 1822 581 
Q 2028 581 2168 693 
Q 2309 806 2381 1056 
z
M 2431 1944 
Q 2422 2325 2234 2523 
Q 2047 2722 1778 2722 
Q 1491 2722 1303 2513 
Q 1116 2303 1119 1944 
L 2431 1944 
z
" transform="scale(0.015625)"/>
        <path id="Arial-BoldMT-20" transform="scale(0.015625)"/>
        <path id="Arial-BoldMT-49" d="M 438 0 
L 438 4581 
L 1363 4581 
L 1363 0 
L 438 0 
z
" transform="scale(0.015625)"/>
        <path id="Arial-BoldMT-6e" d="M 3478 0 
L 2600 0 
L 2600 1694 
Q 2600 2231 2544 2389 
Q 2488 2547 2361 2634 
Q 2234 2722 2056 2722 
Q 1828 2722 1647 2597 
Q 1466 2472 1398 2265 
Q 1331 2059 1331 1503 
L 1331 0 
L 453 0 
L 453 3319 
L 1269 3319 
L 1269 2831 
Q 1703 3394 2363 3394 
Q 2653 3394 2893 3289 
Q 3134 3184 3257 3021 
Q 3381 2859 3429 2653 
Q 3478 2447 3478 2063 
L 3478 0 
z
" transform="scale(0.015625)"/>
        <path id="Arial-BoldMT-74" d="M 1981 3319 
L 1981 2619 
L 1381 2619 
L 1381 1281 
Q 1381 875 1398 808 
Q 1416 741 1477 697 
Q 1538 653 1625 653 
Q 1747 653 1978 738 
L 2053 56 
Q 1747 -75 1359 -75 
Q 1122 -75 931 4 
Q 741 84 652 211 
Q 563 338 528 553 
Q 500 706 500 1172 
L 500 2619 
L 97 2619 
L 97 3319 
L 500 3319 
L 500 3978 
L 1381 4491 
L 1381 3319 
L 1981 3319 
z
" transform="scale(0.015625)"/>
        <path id="Arial-BoldMT-67" d="M 378 -219 
L 1381 -341 
Q 1406 -516 1497 -581 
Q 1622 -675 1891 -675 
Q 2234 -675 2406 -572 
Q 2522 -503 2581 -350 
Q 2622 -241 2622 53 
L 2622 538 
Q 2228 0 1628 0 
Q 959 0 569 566 
Q 263 1013 263 1678 
Q 263 2513 664 2953 
Q 1066 3394 1663 3394 
Q 2278 3394 2678 2853 
L 2678 3319 
L 3500 3319 
L 3500 341 
Q 3500 -247 3403 -537 
Q 3306 -828 3131 -993 
Q 2956 -1159 2664 -1253 
Q 2372 -1347 1925 -1347 
Q 1081 -1347 728 -1058 
Q 375 -769 375 -325 
Q 375 -281 378 -219 
z
M 1163 1728 
Q 1163 1200 1367 954 
Q 1572 709 1872 709 
Q 2194 709 2416 961 
Q 2638 1213 2638 1706 
Q 2638 2222 2425 2472 
Q 2213 2722 1888 2722 
Q 1572 2722 1367 2476 
Q 1163 2231 1163 1728 
z
" transform="scale(0.015625)"/>
        <path id="Arial-BoldMT-72" d="M 1300 0 
L 422 0 
L 422 3319 
L 1238 3319 
L 1238 2847 
Q 1447 3181 1614 3287 
Q 1781 3394 1994 3394 
Q 2294 3394 2572 3228 
L 2300 2463 
Q 2078 2606 1888 2606 
Q 1703 2606 1575 2504 
Q 1447 2403 1373 2137 
Q 1300 1872 1300 1025 
L 1300 0 
z
" transform="scale(0.015625)"/>
        <path id="Arial-BoldMT-61" d="M 1116 2306 
L 319 2450 
Q 453 2931 781 3162 
Q 1109 3394 1756 3394 
Q 2344 3394 2631 3255 
Q 2919 3116 3036 2902 
Q 3153 2688 3153 2116 
L 3144 1091 
Q 3144 653 3186 445 
Q 3228 238 3344 0 
L 2475 0 
Q 2441 88 2391 259 
Q 2369 338 2359 363 
Q 2134 144 1878 34 
Q 1622 -75 1331 -75 
Q 819 -75 523 203 
Q 228 481 228 906 
Q 228 1188 362 1408 
Q 497 1628 739 1745 
Q 981 1863 1438 1950 
Q 2053 2066 2291 2166 
L 2291 2253 
Q 2291 2506 2166 2614 
Q 2041 2722 1694 2722 
Q 1459 2722 1328 2630 
Q 1197 2538 1116 2306 
z
M 2291 1594 
Q 2122 1538 1756 1459 
Q 1391 1381 1278 1306 
Q 1106 1184 1106 997 
Q 1106 813 1243 678 
Q 1381 544 1594 544 
Q 1831 544 2047 700 
Q 2206 819 2256 991 
Q 2291 1103 2291 1419 
L 2291 1594 
z
" transform="scale(0.015625)"/>
        <path id="Arial-BoldMT-69" d="M 459 3769 
L 459 4581 
L 1338 4581 
L 1338 3769 
L 459 3769 
z
M 459 0 
L 459 3319 
L 1338 3319 
L 1338 0 
L 459 0 
z
" transform="scale(0.015625)"/>
       </defs>
       <use xlink:href="#Arial-BoldMT-4e"/>
       <use xlink:href="#Arial-BoldMT-6f" transform="translate(72.216797 0)"/>
       <use xlink:href="#Arial-BoldMT-64" transform="translate(133.300781 0)"/>
       <use xlink:href="#Arial-BoldMT-65" transform="translate(194.384766 0)"/>
       <use xlink:href="#Arial-BoldMT-20" transform="translate(250 0)"/>
       <use xlink:href="#Arial-BoldMT-49" transform="translate(277.783203 0)"/>
       <use xlink:href="#Arial-BoldMT-6e" transform="translate(305.566406 0)"/>
       <use xlink:href="#Arial-BoldMT-74" transform="translate(366.650391 0)"/>
       <use xlink:href="#Arial-BoldMT-65" transform="translate(399.951172 0)"/>
       <use xlink:href="#Arial-BoldMT-67" transform="translate(455.566406 0)"/>
       <use xlink:href="#Arial-BoldMT-72" transform="translate(516.650391 0)"/>
       <use xlink:href="#Arial-BoldMT-61" transform="translate(555.566406 0)"/>
       <use xlink:href="#Arial-BoldMT-74" transform="translate(611.181641 0)"/>
       <use xlink:href="#Arial-BoldMT-69" transform="translate(644.482422 0)"/>
       <use xlink:href="#Arial-BoldMT-6f" transform="translate(672.265625 0)"/>
       <use xlink:href="#Arial-BoldMT-6e" transform="translate(733.349609 0)"/>
      </g>
     </g>
    </g>
    <g id="xtick_2">
     <g id="line2d_2">
      <path d="M 291.314695 314.076486 
L 371.884821 66.107135 
" clip-path="url(#pf0f6e61ce0)" style="fill: none; stroke: #ffffff; stroke-opacity: 0.3; stroke-width: 1.5; stroke-linecap: round"/>
     </g>
     <g id="text_2">
      <!-- Edge Connectivity -->
      <g style="fill: #262626" transform="translate(322.791687 59.226042) scale(0.12 -0.12)">
       <defs>
        <path id="Arial-BoldMT-45" d="M 466 0 
L 466 4581 
L 3863 4581 
L 3863 3806 
L 1391 3806 
L 1391 2791 
L 3691 2791 
L 3691 2019 
L 1391 2019 
L 1391 772 
L 3950 772 
L 3950 0 
L 466 0 
z
" transform="scale(0.015625)"/>
        <path id="Arial-BoldMT-43" d="M 3397 1684 
L 4294 1400 
Q 4088 650 3608 286 
Q 3128 -78 2391 -78 
Q 1478 -78 890 545 
Q 303 1169 303 2250 
Q 303 3394 893 4026 
Q 1484 4659 2447 4659 
Q 3288 4659 3813 4163 
Q 4125 3869 4281 3319 
L 3366 3100 
Q 3284 3456 3026 3662 
Q 2769 3869 2400 3869 
Q 1891 3869 1573 3503 
Q 1256 3138 1256 2319 
Q 1256 1450 1568 1081 
Q 1881 713 2381 713 
Q 2750 713 3015 947 
Q 3281 1181 3397 1684 
z
" transform="scale(0.015625)"/>
        <path id="Arial-BoldMT-63" d="M 3353 2338 
L 2488 2181 
Q 2444 2441 2289 2572 
Q 2134 2703 1888 2703 
Q 1559 2703 1364 2476 
Q 1169 2250 1169 1719 
Q 1169 1128 1367 884 
Q 1566 641 1900 641 
Q 2150 641 2309 783 
Q 2469 925 2534 1272 
L 3397 1125 
Q 3263 531 2881 228 
Q 2500 -75 1859 -75 
Q 1131 -75 698 384 
Q 266 844 266 1656 
Q 266 2478 700 2936 
Q 1134 3394 1875 3394 
Q 2481 3394 2839 3133 
Q 3197 2872 3353 2338 
z
" transform="scale(0.015625)"/>
        <path id="Arial-BoldMT-76" d="M 1372 0 
L 34 3319 
L 956 3319 
L 1581 1625 
L 1763 1059 
Q 1834 1275 1853 1344 
Q 1897 1484 1947 1625 
L 2578 3319 
L 3481 3319 
L 2163 0 
L 1372 0 
z
" transform="scale(0.015625)"/>
        <path id="Arial-BoldMT-79" d="M 44 3319 
L 978 3319 
L 1772 963 
L 2547 3319 
L 3456 3319 
L 2284 125 
L 2075 -453 
Q 1959 -744 1854 -897 
Q 1750 -1050 1614 -1145 
Q 1478 -1241 1279 -1294 
Q 1081 -1347 831 -1347 
Q 578 -1347 334 -1294 
L 256 -606 
Q 463 -647 628 -647 
Q 934 -647 1081 -467 
Q 1228 -288 1306 -9 
L 44 3319 
z
" transform="scale(0.015625)"/>
       </defs>
       <use xlink:href="#Arial-BoldMT-45"/>
       <use xlink:href="#Arial-BoldMT-64" transform="translate(66.699219 0)"/>
       <use xlink:href="#Arial-BoldMT-67" transform="translate(127.783203 0)"/>
       <use xlink:href="#Arial-BoldMT-65" transform="translate(188.867188 0)"/>
       <use xlink:href="#Arial-BoldMT-20" transform="translate(244.482422 0)"/>
       <use xlink:href="#Arial-BoldMT-43" transform="translate(272.265625 0)"/>
       <use xlink:href="#Arial-BoldMT-6f" transform="translate(344.482422 0)"/>
       <use xlink:href="#Arial-BoldMT-6e" transform="translate(405.566406 0)"/>
       <use xlink:href="#Arial-BoldMT-6e" transform="translate(466.650391 0)"/>
       <use xlink:href="#Arial-BoldMT-65" transform="translate(527.734375 0)"/>
       <use xlink:href="#Arial-BoldMT-63" transform="translate(583.349609 0)"/>
       <use xlink:href="#Arial-BoldMT-74" transform="translate(638.964844 0)"/>
       <use xlink:href="#Arial-BoldMT-69" transform="translate(672.265625 0)"/>
       <use xlink:href="#Arial-BoldMT-76" transform="translate(700.048828 0)"/>
       <use xlink:href="#Arial-BoldMT-69" transform="translate(755.664062 0)"/>
       <use xlink:href="#Arial-BoldMT-74" transform="translate(783.447266 0)"/>
       <use xlink:href="#Arial-BoldMT-79" transform="translate(816.748047 0)"/>
      </g>
     </g>
    </g>
    <g id="xtick_3">
     <g id="line2d_3">
      <path d="M 291.314695 314.076486 
L 80.379366 160.822999 
" clip-path="url(#pf0f6e61ce0)" style="fill: none; stroke: #ffffff; stroke-opacity: 0.3; stroke-width: 1.5; stroke-linecap: round"/>
     </g>
     <g id="text_3">
      <!-- Landmark Prominence -->
      <g style="fill: #262626" transform="translate(7.2 157.761879) scale(0.12 -0.12)">
       <defs>
        <path id="Arial-BoldMT-4c" d="M 491 0 
L 491 4544 
L 1416 4544 
L 1416 772 
L 3716 772 
L 3716 0 
L 491 0 
z
" transform="scale(0.015625)"/>
        <path id="Arial-BoldMT-6d" d="M 394 3319 
L 1203 3319 
L 1203 2866 
Q 1638 3394 2238 3394 
Q 2556 3394 2790 3262 
Q 3025 3131 3175 2866 
Q 3394 3131 3647 3262 
Q 3900 3394 4188 3394 
Q 4553 3394 4806 3245 
Q 5059 3097 5184 2809 
Q 5275 2597 5275 2122 
L 5275 0 
L 4397 0 
L 4397 1897 
Q 4397 2391 4306 2534 
Q 4184 2722 3931 2722 
Q 3747 2722 3584 2609 
Q 3422 2497 3350 2280 
Q 3278 2063 3278 1594 
L 3278 0 
L 2400 0 
L 2400 1819 
Q 2400 2303 2353 2443 
Q 2306 2584 2207 2653 
Q 2109 2722 1941 2722 
Q 1738 2722 1575 2612 
Q 1413 2503 1342 2297 
Q 1272 2091 1272 1613 
L 1272 0 
L 394 0 
L 394 3319 
z
" transform="scale(0.015625)"/>
        <path id="Arial-BoldMT-6b" d="M 428 0 
L 428 4581 
L 1306 4581 
L 1306 2150 
L 2334 3319 
L 3416 3319 
L 2281 2106 
L 3497 0 
L 2550 0 
L 1716 1491 
L 1306 1063 
L 1306 0 
L 428 0 
z
" transform="scale(0.015625)"/>
        <path id="Arial-BoldMT-50" d="M 466 0 
L 466 4581 
L 1950 4581 
Q 2794 4581 3050 4513 
Q 3444 4409 3709 4064 
Q 3975 3719 3975 3172 
Q 3975 2750 3822 2462 
Q 3669 2175 3433 2011 
Q 3197 1847 2953 1794 
Q 2622 1728 1994 1728 
L 1391 1728 
L 1391 0 
L 466 0 
z
M 1391 3806 
L 1391 2506 
L 1897 2506 
Q 2444 2506 2628 2578 
Q 2813 2650 2917 2803 
Q 3022 2956 3022 3159 
Q 3022 3409 2875 3571 
Q 2728 3734 2503 3775 
Q 2338 3806 1838 3806 
L 1391 3806 
z
" transform="scale(0.015625)"/>
       </defs>
       <use xlink:href="#Arial-BoldMT-4c"/>
       <use xlink:href="#Arial-BoldMT-61" transform="translate(61.083984 0)"/>
       <use xlink:href="#Arial-BoldMT-6e" transform="translate(116.699219 0)"/>
       <use xlink:href="#Arial-BoldMT-64" transform="translate(177.783203 0)"/>
       <use xlink:href="#Arial-BoldMT-6d" transform="translate(238.867188 0)"/>
       <use xlink:href="#Arial-BoldMT-61" transform="translate(327.783203 0)"/>
       <use xlink:href="#Arial-BoldMT-72" transform="translate(383.398438 0)"/>
       <use xlink:href="#Arial-BoldMT-6b" transform="translate(422.314453 0)"/>
       <use xlink:href="#Arial-BoldMT-20" transform="translate(477.929688 0)"/>
       <use xlink:href="#Arial-BoldMT-50" transform="translate(505.712891 0)"/>
       <use xlink:href="#Arial-BoldMT-72" transform="translate(572.412109 0)"/>
       <use xlink:href="#Arial-BoldMT-6f" transform="translate(611.328125 0)"/>
       <use xlink:href="#Arial-BoldMT-6d" transform="translate(672.412109 0)"/>
       <use xlink:href="#Arial-BoldMT-69" transform="translate(761.328125 0)"/>
       <use xlink:href="#Arial-BoldMT-6e" transform="translate(789.111328 0)"/>
       <use xlink:href="#Arial-BoldMT-65" transform="translate(850.195312 0)"/>
       <use xlink:href="#Arial-BoldMT-6e" transform="translate(905.810547 0)"/>
       <use xlink:href="#Arial-BoldMT-63" transform="translate(966.894531 0)"/>
       <use xlink:href="#Arial-BoldMT-65" transform="translate(1022.509766 0)"/>
      </g>
     </g>
    </g>
    <g id="xtick_4">
     <g id="line2d_4">
      <path d="M 291.314695 314.076486 
L 80.379366 467.329974 
" clip-path="url(#pf0f6e61ce0)" style="fill: none; stroke: #ffffff; stroke-opacity: 0.3; stroke-width: 1.5; stroke-linecap: round"/>
     </g>
     <g id="text_4">
      <!-- District Coherence -->
      <g style="fill: #262626" transform="translate(18.538125 476.612344) scale(0.12 -0.12)">
       <defs>
        <path id="Arial-BoldMT-44" d="M 463 4581 
L 2153 4581 
Q 2725 4581 3025 4494 
Q 3428 4375 3715 4072 
Q 4003 3769 4153 3330 
Q 4303 2891 4303 2247 
Q 4303 1681 4163 1272 
Q 3991 772 3672 463 
Q 3431 228 3022 97 
Q 2716 0 2203 0 
L 463 0 
L 463 4581 
z
M 1388 3806 
L 1388 772 
L 2078 772 
Q 2466 772 2638 816 
Q 2863 872 3011 1006 
Q 3159 1141 3253 1448 
Q 3347 1756 3347 2288 
Q 3347 2819 3253 3103 
Q 3159 3388 2990 3547 
Q 2822 3706 2563 3763 
Q 2369 3806 1803 3806 
L 1388 3806 
z
" transform="scale(0.015625)"/>
        <path id="Arial-BoldMT-73" d="M 150 947 
L 1031 1081 
Q 1088 825 1259 692 
Q 1431 559 1741 559 
Q 2081 559 2253 684 
Q 2369 772 2369 919 
Q 2369 1019 2306 1084 
Q 2241 1147 2013 1200 
Q 950 1434 666 1628 
Q 272 1897 272 2375 
Q 272 2806 612 3100 
Q 953 3394 1669 3394 
Q 2350 3394 2681 3172 
Q 3013 2950 3138 2516 
L 2309 2363 
Q 2256 2556 2107 2659 
Q 1959 2763 1684 2763 
Q 1338 2763 1188 2666 
Q 1088 2597 1088 2488 
Q 1088 2394 1175 2328 
Q 1294 2241 1995 2081 
Q 2697 1922 2975 1691 
Q 3250 1456 3250 1038 
Q 3250 581 2869 253 
Q 2488 -75 1741 -75 
Q 1063 -75 667 200 
Q 272 475 150 947 
z
" transform="scale(0.015625)"/>
        <path id="Arial-BoldMT-68" d="M 1334 4581 
L 1334 2897 
Q 1759 3394 2350 3394 
Q 2653 3394 2897 3281 
Q 3141 3169 3264 2994 
Q 3388 2819 3433 2606 
Q 3478 2394 3478 1947 
L 3478 0 
L 2600 0 
L 2600 1753 
Q 2600 2275 2550 2415 
Q 2500 2556 2373 2639 
Q 2247 2722 2056 2722 
Q 1838 2722 1666 2615 
Q 1494 2509 1414 2295 
Q 1334 2081 1334 1663 
L 1334 0 
L 456 0 
L 456 4581 
L 1334 4581 
z
" transform="scale(0.015625)"/>
       </defs>
       <use xlink:href="#Arial-BoldMT-44"/>
       <use xlink:href="#Arial-BoldMT-69" transform="translate(72.216797 0)"/>
       <use xlink:href="#Arial-BoldMT-73" transform="translate(100 0)"/>
       <use xlink:href="#Arial-BoldMT-74" transform="translate(155.615234 0)"/>
       <use xlink:href="#Arial-BoldMT-72" transform="translate(188.916016 0)"/>
       <use xlink:href="#Arial-BoldMT-69" transform="translate(227.832031 0)"/>
       <use xlink:href="#Arial-BoldMT-63" transform="translate(255.615234 0)"/>
       <use xlink:href="#Arial-BoldMT-74" transform="translate(311.230469 0)"/>
       <use xlink:href="#Arial-BoldMT-20" transform="translate(344.53125 0)"/>
       <use xlink:href="#Arial-BoldMT-43" transform="translate(372.314453 0)"/>
       <use xlink:href="#Arial-BoldMT-6f" transform="translate(444.53125 0)"/>
       <use xlink:href="#Arial-BoldMT-68" transform="translate(505.615234 0)"/>
       <use xlink:href="#Arial-BoldMT-65" transform="translate(566.699219 0)"/>
       <use xlink:href="#Arial-BoldMT-72" transform="translate(622.314453 0)"/>
       <use xlink:href="#Arial-BoldMT-65" transform="translate(661.230469 0)"/>
       <use xlink:href="#Arial-BoldMT-6e" transform="translate(716.845703 0)"/>
       <use xlink:href="#Arial-BoldMT-63" transform="translate(777.929688 0)"/>
       <use xlink:href="#Arial-BoldMT-65" transform="translate(833.544922 0)"/>
      </g>
     </g>
    </g>
    <g id="xtick_5">
     <g id="line2d_5">
      <path d="M 291.314695 314.076486 
L 371.884821 562.045837 
" clip-path="url(#pf0f6e61ce0)" style="fill: none; stroke: #ffffff; stroke-opacity: 0.3; stroke-width: 1.5; stroke-linecap: round"/>
     </g>
     <g id="text_5">
      <!-- Path Efficiency -->
      <g style="fill: #262626" transform="translate(332.118874 575.136931) scale(0.12 -0.12)">
       <defs>
        <path id="Arial-BoldMT-66" d="M 75 3319 
L 563 3319 
L 563 3569 
Q 563 3988 652 4194 
Q 741 4400 980 4529 
Q 1219 4659 1584 4659 
Q 1959 4659 2319 4547 
L 2200 3934 
Q 1991 3984 1797 3984 
Q 1606 3984 1523 3895 
Q 1441 3806 1441 3553 
L 1441 3319 
L 2097 3319 
L 2097 2628 
L 1441 2628 
L 1441 0 
L 563 0 
L 563 2628 
L 75 2628 
L 75 3319 
z
" transform="scale(0.015625)"/>
       </defs>
       <use xlink:href="#Arial-BoldMT-50"/>
       <use xlink:href="#Arial-BoldMT-61" transform="translate(66.699219 0)"/>
       <use xlink:href="#Arial-BoldMT-74" transform="translate(122.314453 0)"/>
       <use xlink:href="#Arial-BoldMT-68" transform="translate(155.615234 0)"/>
       <use xlink:href="#Arial-BoldMT-20" transform="translate(216.699219 0)"/>
       <use xlink:href="#Arial-BoldMT-45" transform="translate(244.482422 0)"/>
       <use xlink:href="#Arial-BoldMT-66" transform="translate(311.181641 0)"/>
       <use xlink:href="#Arial-BoldMT-66" transform="translate(344.482422 0)"/>
       <use xlink:href="#Arial-BoldMT-69" transform="translate(377.783203 0)"/>
       <use xlink:href="#Arial-BoldMT-63" transform="translate(405.566406 0)"/>
       <use xlink:href="#Arial-BoldMT-69" transform="translate(461.181641 0)"/>
       <use xlink:href="#Arial-BoldMT-65" transform="translate(488.964844 0)"/>
       <use xlink:href="#Arial-BoldMT-6e" transform="translate(544.580078 0)"/>
       <use xlink:href="#Arial-BoldMT-63" transform="translate(605.664062 0)"/>
       <use xlink:href="#Arial-BoldMT-79" transform="translate(661.279297 0)"/>
      </g>
     </g>
    </g>
   </g>
   <g id="matplotlib.axis_2">
    <g id="ytick_1">
     <g id="line2d_6">
      <path d="M 343.460776 314.076486 
C 343.460776 307.228726 342.111916 300.447551 339.491392 294.121045 
C 336.870867 287.794539 333.02964 282.045737 328.187542 277.203639 
C 323.345444 272.361541 317.596642 268.520314 311.270136 265.899789 
C 304.94363 263.279265 298.162455 261.930405 291.314695 261.930405 
C 284.466934 261.930405 277.685759 263.279265 271.359254 265.899789 
C 265.032748 268.520314 259.283945 272.361541 254.441847 277.203639 
C 249.599749 282.045737 245.758522 287.794539 243.137998 294.121045 
C 240.517473 300.447551 239.168614 307.228726 239.168614 314.076486 
C 239.168614 320.924247 240.517473 327.705422 243.137998 334.031928 
C 245.758522 340.358434 249.599749 346.107236 254.441847 350.949334 
C 259.283945 355.791432 265.032748 359.632659 271.359254 362.253183 
C 277.685759 364.873708 284.466934 366.222568 291.314695 366.222568 
C 298.162455 366.222568 304.94363 364.873708 311.270136 362.253183 
C 317.596642 359.632659 323.345444 355.791432 328.187542 350.949334 
C 333.02964 346.107236 336.870867 340.358434 339.491392 334.031928 
C 342.111916 327.705422 343.460776 320.924247 343.460776 314.076486 
" clip-path="url(#pf0f6e61ce0)" style="fill: none; stroke: #ffffff; stroke-opacity: 0.3; stroke-width: 1.5; stroke-linecap: round"/>
     </g>
     <g id="text_6">
      <!-- 0.2 -->
      <g style="fill: #262626" transform="translate(339.491392 292.133545) scale(0.1 -0.1)">
       <defs>
        <path id="ArialMT-30" d="M 266 2259 
Q 266 3072 433 3567 
Q 600 4063 929 4331 
Q 1259 4600 1759 4600 
Q 2128 4600 2406 4451 
Q 2684 4303 2865 4023 
Q 3047 3744 3150 3342 
Q 3253 2941 3253 2259 
Q 3253 1453 3087 958 
Q 2922 463 2592 192 
Q 2263 -78 1759 -78 
Q 1097 -78 719 397 
Q 266 969 266 2259 
z
M 844 2259 
Q 844 1131 1108 757 
Q 1372 384 1759 384 
Q 2147 384 2411 759 
Q 2675 1134 2675 2259 
Q 2675 3391 2411 3762 
Q 2147 4134 1753 4134 
Q 1366 4134 1134 3806 
Q 844 3388 844 2259 
z
" transform="scale(0.015625)"/>
        <path id="ArialMT-2e" d="M 581 0 
L 581 641 
L 1222 641 
L 1222 0 
L 581 0 
z
" transform="scale(0.015625)"/>
        <path id="ArialMT-32" d="M 3222 541 
L 3222 0 
L 194 0 
Q 188 203 259 391 
Q 375 700 629 1000 
Q 884 1300 1366 1694 
Q 2113 2306 2375 2664 
Q 2638 3022 2638 3341 
Q 2638 3675 2398 3904 
Q 2159 4134 1775 4134 
Q 1369 4134 1125 3890 
Q 881 3647 878 3216 
L 300 3275 
Q 359 3922 746 4261 
Q 1134 4600 1788 4600 
Q 2447 4600 2831 4234 
Q 3216 3869 3216 3328 
Q 3216 3053 3103 2787 
Q 2991 2522 2730 2228 
Q 2469 1934 1863 1422 
Q 1356 997 1212 845 
Q 1069 694 975 541 
L 3222 541 
z
" transform="scale(0.015625)"/>
       </defs>
       <use xlink:href="#ArialMT-30"/>
       <use xlink:href="#ArialMT-2e" transform="translate(55.615234 0)"/>
       <use xlink:href="#ArialMT-32" transform="translate(83.398438 0)"/>
      </g>
     </g>
    </g>
    <g id="ytick_2">
     <g id="line2d_7">
      <path d="M 395.606857 314.076486 
C 395.606857 300.380965 392.909138 286.818616 387.668089 274.165604 
C 382.42704 261.512592 374.744586 250.014987 365.06039 240.330791 
C 355.376194 230.646595 343.878589 222.964142 331.225577 217.723092 
C 318.572566 212.482043 305.010216 209.784324 291.314695 209.784324 
C 277.619174 209.784324 264.056824 212.482043 251.403812 217.723092 
C 238.7508 222.964142 227.253196 230.646595 217.569 240.330791 
C 207.884804 250.014987 200.20235 261.512592 194.961301 274.165604 
C 189.720252 286.818616 187.022533 300.380965 187.022533 314.076486 
C 187.022533 327.772008 189.720252 341.334357 194.961301 353.987369 
C 200.20235 366.640381 207.884804 378.137986 217.569 387.822182 
C 227.253196 397.506377 238.7508 405.188831 251.403812 410.42988 
C 264.056824 415.67093 277.619174 418.368649 291.314695 418.368649 
C 305.010216 418.368649 318.572566 415.67093 331.225577 410.42988 
C 343.878589 405.188831 355.376194 397.506377 365.06039 387.822182 
C 374.744586 378.137986 382.42704 366.640381 387.668089 353.987369 
C 392.909138 341.334357 395.606857 327.772008 395.606857 314.076486 
" clip-path="url(#pf0f6e61ce0)" style="fill: none; stroke: #ffffff; stroke-opacity: 0.3; stroke-width: 1.5; stroke-linecap: round"/>
     </g>
     <g id="text_7">
      <!-- 0.4 -->
      <g style="fill: #262626" transform="translate(387.668089 272.178104) scale(0.1 -0.1)">
       <defs>
        <path id="ArialMT-34" d="M 2069 0 
L 2069 1097 
L 81 1097 
L 81 1613 
L 2172 4581 
L 2631 4581 
L 2631 1613 
L 3250 1613 
L 3250 1097 
L 2631 1097 
L 2631 0 
L 2069 0 
z
M 2069 1613 
L 2069 3678 
L 634 1613 
L 2069 1613 
z
" transform="scale(0.015625)"/>
       </defs>
       <use xlink:href="#ArialMT-30"/>
       <use xlink:href="#ArialMT-2e" transform="translate(55.615234 0)"/>
       <use xlink:href="#ArialMT-34" transform="translate(83.398438 0)"/>
      </g>
     </g>
    </g>
    <g id="ytick_3">
     <g id="line2d_8">
      <path d="M 447.752938 314.076486 
C 447.752938 293.533205 443.706359 273.18968 435.844786 254.210163 
C 427.983212 235.230645 416.459531 217.984238 401.933237 203.457944 
C 387.406944 188.93165 370.160536 177.407969 351.181019 169.546395 
C 332.201501 161.684822 311.857977 157.638243 291.314695 157.638243 
C 270.771413 157.638243 250.427889 161.684822 231.448371 169.546395 
C 212.468853 177.407969 195.222446 188.93165 180.696152 203.457944 
C 166.169858 217.984238 154.646177 235.230645 146.784604 254.210163 
C 138.92303 273.18968 134.876452 293.533205 134.876452 314.076486 
C 134.876452 334.619768 138.92303 354.963293 146.784604 373.94281 
C 154.646177 392.922328 166.169858 410.168735 180.696152 424.695029 
C 195.222446 439.221323 212.468853 450.745004 231.448371 458.606577 
C 250.427889 466.468151 270.771413 470.51473 291.314695 470.51473 
C 311.857977 470.51473 332.201501 466.468151 351.181019 458.606577 
C 370.160536 450.745004 387.406944 439.221323 401.933237 424.695029 
C 416.459531 410.168735 427.983212 392.922328 435.844786 373.94281 
C 443.706359 354.963293 447.752938 334.619768 447.752938 314.076486 
" clip-path="url(#pf0f6e61ce0)" style="fill: none; stroke: #ffffff; stroke-opacity: 0.3; stroke-width: 1.5; stroke-linecap: round"/>
     </g>
     <g id="text_8">
      <!-- 0.6 -->
      <g style="fill: #262626" transform="translate(435.844786 252.222663) scale(0.1 -0.1)">
       <defs>
        <path id="ArialMT-36" d="M 3184 3459 
L 2625 3416 
Q 2550 3747 2413 3897 
Q 2184 4138 1850 4138 
Q 1581 4138 1378 3988 
Q 1113 3794 959 3422 
Q 806 3050 800 2363 
Q 1003 2672 1297 2822 
Q 1591 2972 1913 2972 
Q 2475 2972 2870 2558 
Q 3266 2144 3266 1488 
Q 3266 1056 3080 686 
Q 2894 316 2569 119 
Q 2244 -78 1831 -78 
Q 1128 -78 684 439 
Q 241 956 241 2144 
Q 241 3472 731 4075 
Q 1159 4600 1884 4600 
Q 2425 4600 2770 4297 
Q 3116 3994 3184 3459 
z
M 888 1484 
Q 888 1194 1011 928 
Q 1134 663 1356 523 
Q 1578 384 1822 384 
Q 2178 384 2434 671 
Q 2691 959 2691 1453 
Q 2691 1928 2437 2201 
Q 2184 2475 1800 2475 
Q 1419 2475 1153 2201 
Q 888 1928 888 1484 
z
" transform="scale(0.015625)"/>
       </defs>
       <use xlink:href="#ArialMT-30"/>
       <use xlink:href="#ArialMT-2e" transform="translate(55.615234 0)"/>
       <use xlink:href="#ArialMT-36" transform="translate(83.398438 0)"/>
      </g>
     </g>
    </g>
    <g id="ytick_4">
     <g id="line2d_9">
      <path d="M 499.899019 314.076486 
C 499.899019 286.685444 494.503581 259.560745 484.021483 234.254721 
C 473.539385 208.948698 458.174477 185.953488 438.806085 166.585096 
C 419.437693 147.216704 396.442484 131.851797 371.13646 121.369698 
C 345.830436 110.8876 318.705737 105.492162 291.314695 105.492162 
C 263.923652 105.492162 236.798953 110.8876 211.49293 121.369698 
C 186.186906 131.851797 163.191697 147.216704 143.823305 166.585096 
C 124.454913 185.953488 109.090005 208.948698 98.607907 234.254721 
C 88.125809 259.560745 82.730371 286.685444 82.730371 314.076486 
C 82.730371 341.467529 88.125809 368.592228 98.607907 393.898252 
C 109.090005 419.204275 124.454913 442.199485 143.823305 461.567877 
C 163.191697 480.936268 186.186906 496.301176 211.49293 506.783274 
C 236.798953 517.265373 263.923652 522.660811 291.314695 522.660811 
C 318.705737 522.660811 345.830436 517.265373 371.13646 506.783274 
C 396.442484 496.301176 419.437693 480.936268 438.806085 461.567877 
C 458.174477 442.199485 473.539385 419.204275 484.021483 393.898252 
C 494.503581 368.592228 499.899019 341.467529 499.899019 314.076486 
" clip-path="url(#pf0f6e61ce0)" style="fill: none; stroke: #ffffff; stroke-opacity: 0.3; stroke-width: 1.5; stroke-linecap: round"/>
     </g>
     <g id="text_9">
      <!-- 0.8 -->
      <g style="fill: #262626" transform="translate(484.021483 232.267221) scale(0.1 -0.1)">
       <defs>
        <path id="ArialMT-38" d="M 1131 2484 
Q 781 2613 612 2850 
Q 444 3088 444 3419 
Q 444 3919 803 4259 
Q 1163 4600 1759 4600 
Q 2359 4600 2725 4251 
Q 3091 3903 3091 3403 
Q 3091 3084 2923 2848 
Q 2756 2613 2416 2484 
Q 2838 2347 3058 2040 
Q 3278 1734 3278 1309 
Q 3278 722 2862 322 
Q 2447 -78 1769 -78 
Q 1091 -78 675 323 
Q 259 725 259 1325 
Q 259 1772 486 2073 
Q 713 2375 1131 2484 
z
M 1019 3438 
Q 1019 3113 1228 2906 
Q 1438 2700 1772 2700 
Q 2097 2700 2305 2904 
Q 2513 3109 2513 3406 
Q 2513 3716 2298 3927 
Q 2084 4138 1766 4138 
Q 1444 4138 1231 3931 
Q 1019 3725 1019 3438 
z
M 838 1322 
Q 838 1081 952 856 
Q 1066 631 1291 507 
Q 1516 384 1775 384 
Q 2178 384 2440 643 
Q 2703 903 2703 1303 
Q 2703 1709 2433 1975 
Q 2163 2241 1756 2241 
Q 1359 2241 1098 1978 
Q 838 1716 838 1322 
z
" transform="scale(0.015625)"/>
       </defs>
       <use xlink:href="#ArialMT-30"/>
       <use xlink:href="#ArialMT-2e" transform="translate(55.615234 0)"/>
       <use xlink:href="#ArialMT-38" transform="translate(83.398438 0)"/>
      </g>
     </g>
    </g>
    <g id="ytick_5">
     <g id="line2d_10">
      <path d="M 552.0451 314.076486 
C 552.0451 279.837683 545.300803 245.931809 532.19818 214.29928 
C 519.095557 182.666751 499.889422 153.922739 475.678933 129.712249 
C 451.468443 105.501759 422.724431 86.295624 391.091901 73.193001 
C 359.459372 60.090379 325.553498 53.346081 291.314695 53.346081 
C 257.075892 53.346081 223.170018 60.090379 191.537488 73.193001 
C 159.904959 86.295624 131.160947 105.501759 106.950457 129.712249 
C 82.739967 153.922739 63.533833 182.666751 50.43121 214.29928 
C 37.328587 245.931809 30.584289 279.837683 30.584289 314.076486 
C 30.584289 348.31529 37.328587 382.221163 50.43121 413.853693 
C 63.533833 445.486222 82.739967 474.230234 106.950457 498.440724 
C 131.160947 522.651214 159.904959 541.857349 191.537488 554.959971 
C 223.170018 568.062594 257.075892 574.806892 291.314695 574.806892 
C 325.553498 574.806892 359.459372 568.062594 391.091901 554.959971 
C 422.724431 541.857349 451.468443 522.651214 475.678933 498.440724 
C 499.889422 474.230234 519.095557 445.486222 532.19818 413.853693 
C 545.300803 382.221163 552.0451 348.31529 552.0451 314.076486 
" clip-path="url(#pf0f6e61ce0)" style="fill: none; stroke: #ffffff; stroke-opacity: 0.3; stroke-width: 1.5; stroke-linecap: round"/>
     </g>
     <g id="text_10">
      <!-- 1.0 -->
      <g style="fill: #262626" transform="translate(532.19818 212.31178) scale(0.1 -0.1)">
       <defs>
        <path id="ArialMT-31" d="M 2384 0 
L 1822 0 
L 1822 3584 
Q 1619 3391 1289 3197 
Q 959 3003 697 2906 
L 697 3450 
Q 1169 3672 1522 3987 
Q 1875 4303 2022 4600 
L 2384 4600 
L 2384 0 
z
" transform="scale(0.015625)"/>
       </defs>
       <use xlink:href="#ArialMT-31"/>
       <use xlink:href="#ArialMT-2e" transform="translate(55.615234 0)"/>
       <use xlink:href="#ArialMT-30" transform="translate(83.398438 0)"/>
      </g>
     </g>
    </g>
   </g>
   <g id="patch_3">
    <path d="M 291.314695 314.076486 
L 291.314695 314.076486 
L 235.857218 273.784271 
L 126.215383 434.028158 
L 331.599758 438.061162 
z
" clip-path="url(#pf0f6e61ce0)" style="fill: #e74c3c; opacity: 0.15; stroke: #e74c3c; stroke-linejoin: miter"/>
   </g>
   <g id="patch_4">
    <path d="M 330.156778 314.076486 
L 320.875625 223.097299 
L 291.314695 314.076486 
L 80.379366 467.329974 
L 331.599758 438.061162 
z
" clip-path="url(#pf0f6e61ce0)" style="fill: #3498db; opacity: 0.15; stroke: #3498db; stroke-linejoin: miter"/>
   </g>
   <g id="patch_5">
    <path d="M 552.0451 314.076486 
L 330.66839 192.958267 
L 80.379366 160.822999 
L 291.314695 314.076486 
L 331.599758 438.061162 
z
" clip-path="url(#pf0f6e61ce0)" style="fill: #2ecc71; opacity: 0.15; stroke: #2ecc71; stroke-linejoin: miter"/>
   </g>
   <g id="patch_6">
    <path d="M 499.877989 314.076486 
L 371.884821 66.107135 
L 146.151946 208.609576 
L 222.85492 363.815425 
L 331.599758 438.061162 
z
" clip-path="url(#pf0f6e61ce0)" style="fill: #f39c12; opacity: 0.15; stroke: #f39c12; stroke-linejoin: miter"/>
   </g>
   <g id="line2d_11">
    <path d="M 291.314695 314.076486 
L 291.314695 314.076486 
L 235.857218 273.784271 
L 126.215383 434.028158 
L 331.599758 438.061162 
L 291.314695 314.076486 
" clip-path="url(#pf0f6e61ce0)" style="fill: none; stroke: #e74c3c; stroke-opacity: 0.9; stroke-width: 3; stroke-linecap: round"/>
    <defs>
     <path id="m4b6bbaa542" d="M 0 5 
C 1.326016 5 2.597899 4.473168 3.535534 3.535534 
C 4.473168 2.597899 5 1.326016 5 0 
C 5 -1.326016 4.473168 -2.597899 3.535534 -3.535534 
C 2.597899 -4.473168 1.326016 -5 0 -5 
C -1.326016 -5 -2.597899 -4.473168 -3.535534 -3.535534 
C -4.473168 -2.597899 -5 -1.326016 -5 0 
C -5 1.326016 -4.473168 2.597899 -3.535534 3.535534 
C -2.597899 4.473168 -1.326016 5 0 5 
z
" style="stroke: #e74c3c; stroke-opacity: 0.9"/>
    </defs>
    <g clip-path="url(#pf0f6e61ce0)">
     <use xlink:href="#m4b6bbaa542" x="291.314695" y="314.076486" style="fill: #e74c3c; fill-opacity: 0.9; stroke: #e74c3c; stroke-opacity: 0.9"/>
     <use xlink:href="#m4b6bbaa542" x="291.314695" y="314.076486" style="fill: #e74c3c; fill-opacity: 0.9; stroke: #e74c3c; stroke-opacity: 0.9"/>
     <use xlink:href="#m4b6bbaa542" x="235.857218" y="273.784271" style="fill: #e74c3c; fill-opacity: 0.9; stroke: #e74c3c; stroke-opacity: 0.9"/>
     <use xlink:href="#m4b6bbaa542" x="126.215383" y="434.028158" style="fill: #e74c3c; fill-opacity: 0.9; stroke: #e74c3c; stroke-opacity: 0.9"/>
     <use xlink:href="#m4b6bbaa542" x="331.599758" y="438.061162" style="fill: #e74c3c; fill-opacity: 0.9; stroke: #e74c3c; stroke-opacity: 0.9"/>
     <use xlink:href="#m4b6bbaa542" x="291.314695" y="314.076486" style="fill: #e74c3c; fill-opacity: 0.9; stroke: #e74c3c; stroke-opacity: 0.9"/>
    </g>
   </g>
   <g id="line2d_12">
    <path d="M 330.156778 314.076486 
L 320.875625 223.097299 
L 291.314695 314.076486 
L 80.379366 467.329974 
L 331.599758 438.061162 
L 330.156778 314.076486 
" clip-path="url(#pf0f6e61ce0)" style="fill: none; stroke: #3498db; stroke-opacity: 0.9; stroke-width: 3; stroke-linecap: round"/>
    <defs>
     <path id="mf0db55eb49" d="M 0 5 
C 1.326016 5 2.597899 4.473168 3.535534 3.535534 
C 4.473168 2.597899 5 1.326016 5 0 
C 5 -1.326016 4.473168 -2.597899 3.535534 -3.535534 
C 2.597899 -4.473168 1.326016 -5 0 -5 
C -1.326016 -5 -2.597899 -4.473168 -3.535534 -3.535534 
C -4.473168 -2.597899 -5 -1.326016 -5 0 
C -5 1.326016 -4.473168 2.597899 -3.535534 3.535534 
C -2.597899 4.473168 -1.326016 5 0 5 
z
" style="stroke: #3498db; stroke-opacity: 0.9"/>
    </defs>
    <g clip-path="url(#pf0f6e61ce0)">
     <use xlink:href="#mf0db55eb49" x="330.156778" y="314.076486" style="fill: #3498db; fill-opacity: 0.9; stroke: #3498db; stroke-opacity: 0.9"/>
     <use xlink:href="#mf0db55eb49" x="320.875625" y="223.097299" style="fill: #3498db; fill-opacity: 0.9; stroke: #3498db; stroke-opacity: 0.9"/>
     <use xlink:href="#mf0db55eb49" x="291.314695" y="314.076486" style="fill: #3498db; fill-opacity: 0.9; stroke: #3498db; stroke-opacity: 0.9"/>
     <use xlink:href="#mf0db55eb49" x="80.379366" y="467.329974" style="fill: #3498db; fill-opacity: 0.9; stroke: #3498db; stroke-opacity: 0.9"/>
     <use xlink:href="#mf0db55eb49" x="331.599758" y="438.061162" style="fill: #3498db; fill-opacity: 0.9; stroke: #3498db; stroke-opacity: 0.9"/>
     <use xlink:href="#mf0db55eb49" x="330.156778" y="314.076486" style="fill: #3498db; fill-opacity: 0.9; stroke: #3498db; stroke-opacity: 0.9"/>
    </g>
   </g>
   <g id="line2d_13">
    <path d="M 552.0451 314.076486 
L 330.66839 192.958267 
L 80.379366 160.822999 
L 291.314695 314.076486 
L 331.599758 438.061162 
L 552.0451 314.076486 
" clip-path="url(#pf0f6e61ce0)" style="fill: none; stroke: #2ecc71; stroke-opacity: 0.9; stroke-width: 3; stroke-linecap: round"/>
    <defs>
     <path id="m33cf0ddeac" d="M 0 5 
C 1.326016 5 2.597899 4.473168 3.535534 3.535534 
C 4.473168 2.597899 5 1.326016 5 0 
C 5 -1.326016 4.473168 -2.597899 3.535534 -3.535534 
C 2.597899 -4.473168 1.326016 -5 0 -5 
C -1.326016 -5 -2.597899 -4.473168 -3.535534 -3.535534 
C -4.473168 -2.597899 -5 -1.326016 -5 0 
C -5 1.326016 -4.473168 2.597899 -3.535534 3.535534 
C -2.597899 4.473168 -1.326016 5 0 5 
z
" style="stroke: #2ecc71; stroke-opacity: 0.9"/>
    </defs>
    <g clip-path="url(#pf0f6e61ce0)">
     <use xlink:href="#m33cf0ddeac" x="552.0451" y="314.076486" style="fill: #2ecc71; fill-opacity: 0.9; stroke: #2ecc71; stroke-opacity: 0.9"/>
     <use xlink:href="#m33cf0ddeac" x="330.66839" y="192.958267" style="fill: #2ecc71; fill-opacity: 0.9; stroke: #2ecc71; stroke-opacity: 0.9"/>
     <use xlink:href="#m33cf0ddeac" x="80.379366" y="160.822999" style="fill: #2ecc71; fill-opacity: 0.9; stroke: #2ecc71; stroke-opacity: 0.9"/>
     <use xlink:href="#m33cf0ddeac" x="291.314695" y="314.076486" style="fill: #2ecc71; fill-opacity: 0.9; stroke: #2ecc71; stroke-opacity: 0.9"/>
     <use xlink:href="#m33cf0ddeac" x="331.599758" y="438.061162" style="fill: #2ecc71; fill-opacity: 0.9; stroke: #2ecc71; stroke-opacity: 0.9"/>
     <use xlink:href="#m33cf0ddeac" x="552.0451" y="314.076486" style="fill: #2ecc71; fill-opacity: 0.9; stroke: #2ecc71; stroke-opacity: 0.9"/>
    </g>
   </g>
   <g id="line2d_14">
    <path d="M 499.877989 314.076486 
L 371.884821 66.107135 
L 146.151946 208.609576 
L 222.85492 363.815425 
L 331.599758 438.061162 
L 499.877989 314.076486 
" clip-path="url(#pf0f6e61ce0)" style="fill: none; stroke: #f39c12; stroke-opacity: 0.9; stroke-width: 3; stroke-linecap: round"/>
    <defs>
     <path id="md595ff053e" d="M 0 5 
C 1.326016 5 2.597899 4.473168 3.535534 3.535534 
C 4.473168 2.597899 5 1.326016 5 0 
C 5 -1.326016 4.473168 -2.597899 3.535534 -3.535534 
C 2.597899 -4.473168 1.326016 -5 0 -5 
C -1.326016 -5 -2.597899 -4.473168 -3.535534 -3.535534 
C -4.473168 -2.597899 -5 -1.326016 -5 0 
C -5 1.326016 -4.473168 2.597899 -3.535534 3.535534 
C -2.597899 4.473168 -1.326016 5 0 5 
z
" style="stroke: #f39c12; stroke-opacity: 0.9"/>
    </defs>
    <g clip-path="url(#pf0f6e61ce0)">
     <use xlink:href="#md595ff053e" x="499.877989" y="314.076486" style="fill: #f39c12; fill-opacity: 0.9; stroke: #f39c12; stroke-opacity: 0.9"/>
     <use xlink:href="#md595ff053e" x="371.884821" y="66.107135" style="fill: #f39c12; fill-opacity: 0.9; stroke: #f39c12; stroke-opacity: 0.9"/>
     <use xlink:href="#md595ff053e" x="146.151946" y="208.609576" style="fill: #f39c12; fill-opacity: 0.9; stroke: #f39c12; stroke-opacity: 0.9"/>
     <use xlink:href="#md595ff053e" x="222.85492" y="363.815425" style="fill: #f39c12; fill-opacity: 0.9; stroke: #f39c12; stroke-opacity: 0.9"/>
     <use xlink:href="#md595ff053e" x="331.599758" y="438.061162" style="fill: #f39c12; fill-opacity: 0.9; stroke: #f39c12; stroke-opacity: 0.9"/>
     <use xlink:href="#md595ff053e" x="499.877989" y="314.076486" style="fill: #f39c12; fill-opacity: 0.9; stroke: #f39c12; stroke-opacity: 0.9"/>
    </g>
   </g>
   <g id="patch_7">
    <path d="M 552.0451 314.076486 
C 552.0451 279.837683 545.300803 245.931809 532.19818 214.29928 
C 519.095557 182.666751 499.889422 153.922739 475.678933 129.712249 
C 451.468443 105.501759 422.724431 86.295624 391.091901 73.193001 
C 359.459372 60.090379 325.553498 53.346081 291.314695 53.346081 
C 257.075892 53.346081 223.170018 60.090379 191.537488 73.193001 
C 159.904959 86.295624 131.160947 105.501759 106.950457 129.712249 
C 82.739967 153.922739 63.533833 182.666751 50.43121 214.29928 
C 37.328587 245.931809 30.584289 279.837683 30.584289 314.076486 
C 30.584289 348.31529 37.328587 382.221163 50.43121 413.853693 
C 63.533833 445.486222 82.739967 474.230234 106.950457 498.440724 
C 131.160947 522.651214 159.904959 541.857349 191.537488 554.959971 
C 223.170018 568.062594 257.075892 574.806892 291.314695 574.806892 
C 325.553498 574.806892 359.459372 568.062594 391.091901 554.959971 
C 422.724431 541.857349 451.468443 522.651214 475.678933 498.440724 
C 499.889422 474.230234 519.095557 445.486222 532.19818 413.853693 
C 545.300803 382.221163 552.0451 348.31529 552.0451 314.076486 
" style="fill: none"/>
   </g>
   <g id="text_11">
    <!-- Space Syntax Metrics: Comparative Overlay -->
    <g style="fill: #262626" transform="translate(103.240007 23.346081) scale(0.18 -0.18)">
     <defs>
      <path id="Arial-BoldMT-53" d="M 231 1491 
L 1131 1578 
Q 1213 1125 1461 912 
Q 1709 700 2131 700 
Q 2578 700 2804 889 
Q 3031 1078 3031 1331 
Q 3031 1494 2936 1608 
Q 2841 1722 2603 1806 
Q 2441 1863 1863 2006 
Q 1119 2191 819 2459 
Q 397 2838 397 3381 
Q 397 3731 595 4036 
Q 794 4341 1167 4500 
Q 1541 4659 2069 4659 
Q 2931 4659 3367 4281 
Q 3803 3903 3825 3272 
L 2900 3231 
Q 2841 3584 2645 3739 
Q 2450 3894 2059 3894 
Q 1656 3894 1428 3728 
Q 1281 3622 1281 3444 
Q 1281 3281 1419 3166 
Q 1594 3019 2269 2859 
Q 2944 2700 3267 2529 
Q 3591 2359 3773 2064 
Q 3956 1769 3956 1334 
Q 3956 941 3737 597 
Q 3519 253 3119 86 
Q 2719 -81 2122 -81 
Q 1253 -81 787 320 
Q 322 722 231 1491 
z
" transform="scale(0.015625)"/>
      <path id="Arial-BoldMT-70" d="M 434 3319 
L 1253 3319 
L 1253 2831 
Q 1413 3081 1684 3237 
Q 1956 3394 2288 3394 
Q 2866 3394 3269 2941 
Q 3672 2488 3672 1678 
Q 3672 847 3265 386 
Q 2859 -75 2281 -75 
Q 2006 -75 1782 34 
Q 1559 144 1313 409 
L 1313 -1263 
L 434 -1263 
L 434 3319 
z
M 1303 1716 
Q 1303 1156 1525 889 
Q 1747 622 2066 622 
Q 2372 622 2575 867 
Q 2778 1113 2778 1672 
Q 2778 2194 2568 2447 
Q 2359 2700 2050 2700 
Q 1728 2700 1515 2451 
Q 1303 2203 1303 1716 
z
" transform="scale(0.015625)"/>
      <path id="Arial-BoldMT-78" d="M 38 0 
L 1234 1709 
L 88 3319 
L 1159 3319 
L 1747 2406 
L 2366 3319 
L 3397 3319 
L 2272 1747 
L 3500 0 
L 2422 0 
L 1747 1028 
L 1066 0 
L 38 0 
z
" transform="scale(0.015625)"/>
      <path id="Arial-BoldMT-4d" d="M 453 0 
L 453 4581 
L 1838 4581 
L 2669 1456 
L 3491 4581 
L 4878 4581 
L 4878 0 
L 4019 0 
L 4019 3606 
L 3109 0 
L 2219 0 
L 1313 3606 
L 1313 0 
L 453 0 
z
" transform="scale(0.015625)"/>
      <path id="Arial-BoldMT-3a" d="M 628 2441 
L 628 3319 
L 1506 3319 
L 1506 2441 
L 628 2441 
z
M 628 0 
L 628 878 
L 1506 878 
L 1506 0 
L 628 0 
z
" transform="scale(0.015625)"/>
      <path id="Arial-BoldMT-4f" d="M 278 2263 
Q 278 2963 488 3438 
Q 644 3788 914 4066 
Q 1184 4344 1506 4478 
Q 1934 4659 2494 4659 
Q 3506 4659 4114 4031 
Q 4722 3403 4722 2284 
Q 4722 1175 4119 548 
Q 3516 -78 2506 -78 
Q 1484 -78 881 545 
Q 278 1169 278 2263 
z
M 1231 2294 
Q 1231 1516 1590 1114 
Q 1950 713 2503 713 
Q 3056 713 3411 1111 
Q 3766 1509 3766 2306 
Q 3766 3094 3420 3481 
Q 3075 3869 2503 3869 
Q 1931 3869 1581 3476 
Q 1231 3084 1231 2294 
z
" transform="scale(0.015625)"/>
      <path id="Arial-BoldMT-6c" d="M 459 0 
L 459 4581 
L 1338 4581 
L 1338 0 
L 459 0 
z
" transform="scale(0.015625)"/>
     </defs>
     <use xlink:href="#Arial-BoldMT-53"/>
     <use xlink:href="#Arial-BoldMT-70" transform="translate(66.699219 0)"/>
     <use xlink:href="#Arial-BoldMT-61" transform="translate(127.783203 0)"/>
     <use xlink:href="#Arial-BoldMT-63" transform="translate(183.398438 0)"/>
     <use xlink:href="#Arial-BoldMT-65" transform="translate(239.013672 0)"/>
     <use xlink:href="#Arial-BoldMT-20" transform="translate(294.628906 0)"/>
     <use xlink:href="#Arial-BoldMT-53" transform="translate(322.412109 0)"/>
     <use xlink:href="#Arial-BoldMT-79" transform="translate(389.111328 0)"/>
     <use xlink:href="#Arial-BoldMT-6e" transform="translate(444.726562 0)"/>
     <use xlink:href="#Arial-BoldMT-74" transform="translate(505.810547 0)"/>
     <use xlink:href="#Arial-BoldMT-61" transform="translate(539.111328 0)"/>
     <use xlink:href="#Arial-BoldMT-78" transform="translate(594.726562 0)"/>
     <use xlink:href="#Arial-BoldMT-20" transform="translate(650.341797 0)"/>
     <use xlink:href="#Arial-BoldMT-4d" transform="translate(678.125 0)"/>
     <use xlink:href="#Arial-BoldMT-65" transform="translate(761.425781 0)"/>
     <use xlink:href="#Arial-BoldMT-74" transform="translate(817.041016 0)"/>
     <use xlink:href="#Arial-BoldMT-72" transform="translate(850.341797 0)"/>
     <use xlink:href="#Arial-BoldMT-69" transform="translate(889.257812 0)"/>
     <use xlink:href="#Arial-BoldMT-63" transform="translate(917.041016 0)"/>
     <use xlink:href="#Arial-BoldMT-73" transform="translate(972.65625 0)"/>
     <use xlink:href="#Arial-BoldMT-3a" transform="translate(1028.271484 0)"/>
     <use xlink:href="#Arial-BoldMT-20" transform="translate(1061.572266 0)"/>
     <use xlink:href="#Arial-BoldMT-43" transform="translate(1089.355469 0)"/>
     <use xlink:href="#Arial-BoldMT-6f" transform="translate(1161.572266 0)"/>
     <use xlink:href="#Arial-BoldMT-6d" transform="translate(1222.65625 0)"/>
     <use xlink:href="#Arial-BoldMT-70" transform="translate(1311.572266 0)"/>
     <use xlink:href="#Arial-BoldMT-61" transform="translate(1372.65625 0)"/>
     <use xlink:href="#Arial-BoldMT-72" transform="translate(1428.271484 0)"/>
     <use xlink:href="#Arial-BoldMT-61" transform="translate(1467.1875 0)"/>
     <use xlink:href="#Arial-BoldMT-74" transform="translate(1522.802734 0)"/>
     <use xlink:href="#Arial-BoldMT-69" transform="translate(1556.103516 0)"/>
     <use xlink:href="#Arial-BoldMT-76" transform="translate(1583.886719 0)"/>
     <use xlink:href="#Arial-BoldMT-65" transform="translate(1639.501953 0)"/>
     <use xlink:href="#Arial-BoldMT-20" transform="translate(1695.117188 0)"/>
     <use xlink:href="#Arial-BoldMT-4f" transform="translate(1722.900391 0)"/>
     <use xlink:href="#Arial-BoldMT-76" transform="translate(1800.683594 0)"/>
     <use xlink:href="#Arial-BoldMT-65" transform="translate(1856.298828 0)"/>
     <use xlink:href="#Arial-BoldMT-72" transform="translate(1911.914062 0)"/>
     <use xlink:href="#Arial-BoldMT-6c" transform="translate(1950.830078 0)"/>
     <use xlink:href="#Arial-BoldMT-61" transform="translate(1978.613281 0)"/>
     <use xlink:href="#Arial-BoldMT-79" transform="translate(2034.228516 0)"/>
    </g>
   </g>
   <g id="legend_1">
    <g id="patch_8">
     <path d="M 574.298343 81.411875 
L 702.083343 81.411875 
Q 704.483343 81.411875 704.483343 79.011875 
L 704.483343 11.6 
Q 704.483343 9.2 702.083343 9.2 
L 574.298343 9.2 
Q 571.898343 9.2 571.898343 11.6 
L 571.898343 79.011875 
Q 571.898343 81.411875 574.298343 81.411875 
z
" style="fill: #464649; opacity: 0.5; stroke: #464649; stroke-linejoin: miter"/>
    </g>
    <g id="patch_9">
     <path d="M 572.298343 79.411875 
L 700.083343 79.411875 
Q 702.483343 79.411875 702.483343 77.011875 
L 702.483343 9.6 
Q 702.483343 7.2 700.083343 7.2 
L 572.298343 7.2 
Q 569.898343 7.2 569.898343 9.6 
L 569.898343 77.011875 
Q 569.898343 79.411875 572.298343 79.411875 
z
" style="fill: #eaeaf2; stroke: #cccccc; stroke-linejoin: miter"/>
    </g>
    <g id="line2d_15">
     <path d="M 574.698343 16.389375 
L 586.698343 16.389375 
L 598.698343 16.389375 
" style="fill: none; stroke: #e74c3c; stroke-opacity: 0.9; stroke-width: 3; stroke-linecap: round"/>
     <g>
      <use xlink:href="#m4b6bbaa542" x="586.698343" y="16.389375" style="fill: #e74c3c; fill-opacity: 0.9; stroke: #e74c3c; stroke-opacity: 0.9"/>
     </g>
    </g>
    <g id="text_12">
     <!-- London, UK -->
     <g style="fill: #262626" transform="translate(608.298343 20.589375) scale(0.12 -0.12)">
      <defs>
       <path id="ArialMT-4c" d="M 469 0 
L 469 4581 
L 1075 4581 
L 1075 541 
L 3331 541 
L 3331 0 
L 469 0 
z
" transform="scale(0.015625)"/>
       <path id="ArialMT-6f" d="M 213 1659 
Q 213 2581 725 3025 
Q 1153 3394 1769 3394 
Q 2453 3394 2887 2945 
Q 3322 2497 3322 1706 
Q 3322 1066 3130 698 
Q 2938 331 2570 128 
Q 2203 -75 1769 -75 
Q 1072 -75 642 372 
Q 213 819 213 1659 
z
M 791 1659 
Q 791 1022 1069 705 
Q 1347 388 1769 388 
Q 2188 388 2466 706 
Q 2744 1025 2744 1678 
Q 2744 2294 2464 2611 
Q 2184 2928 1769 2928 
Q 1347 2928 1069 2612 
Q 791 2297 791 1659 
z
" transform="scale(0.015625)"/>
       <path id="ArialMT-6e" d="M 422 0 
L 422 3319 
L 928 3319 
L 928 2847 
Q 1294 3394 1984 3394 
Q 2284 3394 2536 3286 
Q 2788 3178 2913 3003 
Q 3038 2828 3088 2588 
Q 3119 2431 3119 2041 
L 3119 0 
L 2556 0 
L 2556 2019 
Q 2556 2363 2490 2533 
Q 2425 2703 2258 2804 
Q 2091 2906 1866 2906 
Q 1506 2906 1245 2678 
Q 984 2450 984 1813 
L 984 0 
L 422 0 
z
" transform="scale(0.015625)"/>
       <path id="ArialMT-64" d="M 2575 0 
L 2575 419 
Q 2259 -75 1647 -75 
Q 1250 -75 917 144 
Q 584 363 401 755 
Q 219 1147 219 1656 
Q 219 2153 384 2558 
Q 550 2963 881 3178 
Q 1213 3394 1622 3394 
Q 1922 3394 2156 3267 
Q 2391 3141 2538 2938 
L 2538 4581 
L 3097 4581 
L 3097 0 
L 2575 0 
z
M 797 1656 
Q 797 1019 1065 703 
Q 1334 388 1700 388 
Q 2069 388 2326 689 
Q 2584 991 2584 1609 
Q 2584 2291 2321 2609 
Q 2059 2928 1675 2928 
Q 1300 2928 1048 2622 
Q 797 2316 797 1656 
z
" transform="scale(0.015625)"/>
       <path id="ArialMT-2c" d="M 569 0 
L 569 641 
L 1209 641 
L 1209 0 
Q 1209 -353 1084 -570 
Q 959 -788 688 -906 
L 531 -666 
Q 709 -588 793 -436 
Q 878 -284 888 0 
L 569 0 
z
" transform="scale(0.015625)"/>
       <path id="ArialMT-20" transform="scale(0.015625)"/>
       <path id="ArialMT-55" d="M 3500 4581 
L 4106 4581 
L 4106 1934 
Q 4106 1244 3950 837 
Q 3794 431 3386 176 
Q 2978 -78 2316 -78 
Q 1672 -78 1262 144 
Q 853 366 678 786 
Q 503 1206 503 1934 
L 503 4581 
L 1109 4581 
L 1109 1938 
Q 1109 1341 1220 1058 
Q 1331 775 1601 622 
Q 1872 469 2263 469 
Q 2931 469 3215 772 
Q 3500 1075 3500 1938 
L 3500 4581 
z
" transform="scale(0.015625)"/>
       <path id="ArialMT-4b" d="M 469 0 
L 469 4581 
L 1075 4581 
L 1075 2309 
L 3350 4581 
L 4172 4581 
L 2250 2725 
L 4256 0 
L 3456 0 
L 1825 2319 
L 1075 1588 
L 1075 0 
L 469 0 
z
" transform="scale(0.015625)"/>
      </defs>
      <use xlink:href="#ArialMT-4c"/>
      <use xlink:href="#ArialMT-6f" transform="translate(55.615234 0)"/>
      <use xlink:href="#ArialMT-6e" transform="translate(111.230469 0)"/>
      <use xlink:href="#ArialMT-64" transform="translate(166.845703 0)"/>
      <use xlink:href="#ArialMT-6f" transform="translate(222.460938 0)"/>
      <use xlink:href="#ArialMT-6e" transform="translate(278.076172 0)"/>
      <use xlink:href="#ArialMT-2c" transform="translate(333.691406 0)"/>
      <use xlink:href="#ArialMT-20" transform="translate(361.474609 0)"/>
      <use xlink:href="#ArialMT-55" transform="translate(389.257812 0)"/>
      <use xlink:href="#ArialMT-4b" transform="translate(461.474609 0)"/>
     </g>
    </g>
    <g id="line2d_16">
     <path d="M 574.698343 33.51 
L 586.698343 33.51 
L 598.698343 33.51 
" style="fill: none; stroke: #3498db; stroke-opacity: 0.9; stroke-width: 3; stroke-linecap: round"/>
     <g>
      <use xlink:href="#mf0db55eb49" x="586.698343" y="33.51" style="fill: #3498db; fill-opacity: 0.9; stroke: #3498db; stroke-opacity: 0.9"/>
     </g>
    </g>
    <g id="text_13">
     <!-- Berlin, Germany -->
     <g style="fill: #262626" transform="translate(608.298343 37.71) scale(0.12 -0.12)">
      <defs>
       <path id="ArialMT-42" d="M 469 0 
L 469 4581 
L 2188 4581 
Q 2713 4581 3030 4442 
Q 3347 4303 3526 4014 
Q 3706 3725 3706 3409 
Q 3706 3116 3547 2856 
Q 3388 2597 3066 2438 
Q 3481 2316 3704 2022 
Q 3928 1728 3928 1328 
Q 3928 1006 3792 729 
Q 3656 453 3456 303 
Q 3256 153 2954 76 
Q 2653 0 2216 0 
L 469 0 
z
M 1075 2656 
L 2066 2656 
Q 2469 2656 2644 2709 
Q 2875 2778 2992 2937 
Q 3109 3097 3109 3338 
Q 3109 3566 3000 3739 
Q 2891 3913 2687 3977 
Q 2484 4041 1991 4041 
L 1075 4041 
L 1075 2656 
z
M 1075 541 
L 2216 541 
Q 2509 541 2628 563 
Q 2838 600 2978 687 
Q 3119 775 3209 942 
Q 3300 1109 3300 1328 
Q 3300 1584 3169 1773 
Q 3038 1963 2805 2039 
Q 2572 2116 2134 2116 
L 1075 2116 
L 1075 541 
z
" transform="scale(0.015625)"/>
       <path id="ArialMT-65" d="M 2694 1069 
L 3275 997 
Q 3138 488 2766 206 
Q 2394 -75 1816 -75 
Q 1088 -75 661 373 
Q 234 822 234 1631 
Q 234 2469 665 2931 
Q 1097 3394 1784 3394 
Q 2450 3394 2872 2941 
Q 3294 2488 3294 1666 
Q 3294 1616 3291 1516 
L 816 1516 
Q 847 969 1125 678 
Q 1403 388 1819 388 
Q 2128 388 2347 550 
Q 2566 713 2694 1069 
z
M 847 1978 
L 2700 1978 
Q 2663 2397 2488 2606 
Q 2219 2931 1791 2931 
Q 1403 2931 1139 2672 
Q 875 2413 847 1978 
z
" transform="scale(0.015625)"/>
       <path id="ArialMT-72" d="M 416 0 
L 416 3319 
L 922 3319 
L 922 2816 
Q 1116 3169 1280 3281 
Q 1444 3394 1641 3394 
Q 1925 3394 2219 3213 
L 2025 2691 
Q 1819 2813 1613 2813 
Q 1428 2813 1281 2702 
Q 1134 2591 1072 2394 
Q 978 2094 978 1738 
L 978 0 
L 416 0 
z
" transform="scale(0.015625)"/>
       <path id="ArialMT-6c" d="M 409 0 
L 409 4581 
L 972 4581 
L 972 0 
L 409 0 
z
" transform="scale(0.015625)"/>
       <path id="ArialMT-69" d="M 425 3934 
L 425 4581 
L 988 4581 
L 988 3934 
L 425 3934 
z
M 425 0 
L 425 3319 
L 988 3319 
L 988 0 
L 425 0 
z
" transform="scale(0.015625)"/>
       <path id="ArialMT-47" d="M 2638 1797 
L 2638 2334 
L 4578 2338 
L 4578 638 
Q 4131 281 3656 101 
Q 3181 -78 2681 -78 
Q 2006 -78 1454 211 
Q 903 500 622 1047 
Q 341 1594 341 2269 
Q 341 2938 620 3517 
Q 900 4097 1425 4378 
Q 1950 4659 2634 4659 
Q 3131 4659 3532 4498 
Q 3934 4338 4162 4050 
Q 4391 3763 4509 3300 
L 3963 3150 
Q 3859 3500 3706 3700 
Q 3553 3900 3268 4020 
Q 2984 4141 2638 4141 
Q 2222 4141 1919 4014 
Q 1616 3888 1430 3681 
Q 1244 3475 1141 3228 
Q 966 2803 966 2306 
Q 966 1694 1177 1281 
Q 1388 869 1791 669 
Q 2194 469 2647 469 
Q 3041 469 3416 620 
Q 3791 772 3984 944 
L 3984 1797 
L 2638 1797 
z
" transform="scale(0.015625)"/>
       <path id="ArialMT-6d" d="M 422 0 
L 422 3319 
L 925 3319 
L 925 2853 
Q 1081 3097 1340 3245 
Q 1600 3394 1931 3394 
Q 2300 3394 2536 3241 
Q 2772 3088 2869 2813 
Q 3263 3394 3894 3394 
Q 4388 3394 4653 3120 
Q 4919 2847 4919 2278 
L 4919 0 
L 4359 0 
L 4359 2091 
Q 4359 2428 4304 2576 
Q 4250 2725 4106 2815 
Q 3963 2906 3769 2906 
Q 3419 2906 3187 2673 
Q 2956 2441 2956 1928 
L 2956 0 
L 2394 0 
L 2394 2156 
Q 2394 2531 2256 2718 
Q 2119 2906 1806 2906 
Q 1569 2906 1367 2781 
Q 1166 2656 1075 2415 
Q 984 2175 984 1722 
L 984 0 
L 422 0 
z
" transform="scale(0.015625)"/>
       <path id="ArialMT-61" d="M 2588 409 
Q 2275 144 1986 34 
Q 1697 -75 1366 -75 
Q 819 -75 525 192 
Q 231 459 231 875 
Q 231 1119 342 1320 
Q 453 1522 633 1644 
Q 813 1766 1038 1828 
Q 1203 1872 1538 1913 
Q 2219 1994 2541 2106 
Q 2544 2222 2544 2253 
Q 2544 2597 2384 2738 
Q 2169 2928 1744 2928 
Q 1347 2928 1158 2789 
Q 969 2650 878 2297 
L 328 2372 
Q 403 2725 575 2942 
Q 747 3159 1072 3276 
Q 1397 3394 1825 3394 
Q 2250 3394 2515 3294 
Q 2781 3194 2906 3042 
Q 3031 2891 3081 2659 
Q 3109 2516 3109 2141 
L 3109 1391 
Q 3109 606 3145 398 
Q 3181 191 3288 0 
L 2700 0 
Q 2613 175 2588 409 
z
M 2541 1666 
Q 2234 1541 1622 1453 
Q 1275 1403 1131 1340 
Q 988 1278 909 1158 
Q 831 1038 831 891 
Q 831 666 1001 516 
Q 1172 366 1500 366 
Q 1825 366 2078 508 
Q 2331 650 2450 897 
Q 2541 1088 2541 1459 
L 2541 1666 
z
" transform="scale(0.015625)"/>
       <path id="ArialMT-79" d="M 397 -1278 
L 334 -750 
Q 519 -800 656 -800 
Q 844 -800 956 -737 
Q 1069 -675 1141 -563 
Q 1194 -478 1313 -144 
Q 1328 -97 1363 -6 
L 103 3319 
L 709 3319 
L 1400 1397 
Q 1534 1031 1641 628 
Q 1738 1016 1872 1384 
L 2581 3319 
L 3144 3319 
L 1881 -56 
Q 1678 -603 1566 -809 
Q 1416 -1088 1222 -1217 
Q 1028 -1347 759 -1347 
Q 597 -1347 397 -1278 
z
" transform="scale(0.015625)"/>
      </defs>
      <use xlink:href="#ArialMT-42"/>
      <use xlink:href="#ArialMT-65" transform="translate(66.699219 0)"/>
      <use xlink:href="#ArialMT-72" transform="translate(122.314453 0)"/>
      <use xlink:href="#ArialMT-6c" transform="translate(155.615234 0)"/>
      <use xlink:href="#ArialMT-69" transform="translate(177.832031 0)"/>
      <use xlink:href="#ArialMT-6e" transform="translate(200.048828 0)"/>
      <use xlink:href="#ArialMT-2c" transform="translate(255.664062 0)"/>
      <use xlink:href="#ArialMT-20" transform="translate(283.447266 0)"/>
      <use xlink:href="#ArialMT-47" transform="translate(311.230469 0)"/>
      <use xlink:href="#ArialMT-65" transform="translate(389.013672 0)"/>
      <use xlink:href="#ArialMT-72" transform="translate(444.628906 0)"/>
      <use xlink:href="#ArialMT-6d" transform="translate(477.929688 0)"/>
      <use xlink:href="#ArialMT-61" transform="translate(561.230469 0)"/>
      <use xlink:href="#ArialMT-6e" transform="translate(616.845703 0)"/>
      <use xlink:href="#ArialMT-79" transform="translate(672.460938 0)"/>
     </g>
    </g>
    <g id="line2d_17">
     <path d="M 574.698343 50.77125 
L 586.698343 50.77125 
L 598.698343 50.77125 
" style="fill: none; stroke: #2ecc71; stroke-opacity: 0.9; stroke-width: 3; stroke-linecap: round"/>
     <g>
      <use xlink:href="#m33cf0ddeac" x="586.698343" y="50.77125" style="fill: #2ecc71; fill-opacity: 0.9; stroke: #2ecc71; stroke-opacity: 0.9"/>
     </g>
    </g>
    <g id="text_14">
     <!-- Belgrade, Serbia -->
     <g style="fill: #262626" transform="translate(608.298343 54.97125) scale(0.12 -0.12)">
      <defs>
       <path id="ArialMT-67" d="M 319 -275 
L 866 -356 
Q 900 -609 1056 -725 
Q 1266 -881 1628 -881 
Q 2019 -881 2231 -725 
Q 2444 -569 2519 -288 
Q 2563 -116 2559 434 
Q 2191 0 1641 0 
Q 956 0 581 494 
Q 206 988 206 1678 
Q 206 2153 378 2554 
Q 550 2956 876 3175 
Q 1203 3394 1644 3394 
Q 2231 3394 2613 2919 
L 2613 3319 
L 3131 3319 
L 3131 450 
Q 3131 -325 2973 -648 
Q 2816 -972 2473 -1159 
Q 2131 -1347 1631 -1347 
Q 1038 -1347 672 -1080 
Q 306 -813 319 -275 
z
M 784 1719 
Q 784 1066 1043 766 
Q 1303 466 1694 466 
Q 2081 466 2343 764 
Q 2606 1063 2606 1700 
Q 2606 2309 2336 2618 
Q 2066 2928 1684 2928 
Q 1309 2928 1046 2623 
Q 784 2319 784 1719 
z
" transform="scale(0.015625)"/>
       <path id="ArialMT-53" d="M 288 1472 
L 859 1522 
Q 900 1178 1048 958 
Q 1197 738 1509 602 
Q 1822 466 2213 466 
Q 2559 466 2825 569 
Q 3091 672 3220 851 
Q 3350 1031 3350 1244 
Q 3350 1459 3225 1620 
Q 3100 1781 2813 1891 
Q 2628 1963 1997 2114 
Q 1366 2266 1113 2400 
Q 784 2572 623 2826 
Q 463 3081 463 3397 
Q 463 3744 659 4045 
Q 856 4347 1234 4503 
Q 1613 4659 2075 4659 
Q 2584 4659 2973 4495 
Q 3363 4331 3572 4012 
Q 3781 3694 3797 3291 
L 3216 3247 
Q 3169 3681 2898 3903 
Q 2628 4125 2100 4125 
Q 1550 4125 1298 3923 
Q 1047 3722 1047 3438 
Q 1047 3191 1225 3031 
Q 1400 2872 2139 2705 
Q 2878 2538 3153 2413 
Q 3553 2228 3743 1945 
Q 3934 1663 3934 1294 
Q 3934 928 3725 604 
Q 3516 281 3123 101 
Q 2731 -78 2241 -78 
Q 1619 -78 1198 103 
Q 778 284 539 648 
Q 300 1013 288 1472 
z
" transform="scale(0.015625)"/>
       <path id="ArialMT-62" d="M 941 0 
L 419 0 
L 419 4581 
L 981 4581 
L 981 2947 
Q 1338 3394 1891 3394 
Q 2197 3394 2470 3270 
Q 2744 3147 2920 2923 
Q 3097 2700 3197 2384 
Q 3297 2069 3297 1709 
Q 3297 856 2875 390 
Q 2453 -75 1863 -75 
Q 1275 -75 941 416 
L 941 0 
z
M 934 1684 
Q 934 1088 1097 822 
Q 1363 388 1816 388 
Q 2184 388 2453 708 
Q 2722 1028 2722 1663 
Q 2722 2313 2464 2622 
Q 2206 2931 1841 2931 
Q 1472 2931 1203 2611 
Q 934 2291 934 1684 
z
" transform="scale(0.015625)"/>
      </defs>
      <use xlink:href="#ArialMT-42"/>
      <use xlink:href="#ArialMT-65" transform="translate(66.699219 0)"/>
      <use xlink:href="#ArialMT-6c" transform="translate(122.314453 0)"/>
      <use xlink:href="#ArialMT-67" transform="translate(144.53125 0)"/>
      <use xlink:href="#ArialMT-72" transform="translate(200.146484 0)"/>
      <use xlink:href="#ArialMT-61" transform="translate(233.447266 0)"/>
      <use xlink:href="#ArialMT-64" transform="translate(289.0625 0)"/>
      <use xlink:href="#ArialMT-65" transform="translate(344.677734 0)"/>
      <use xlink:href="#ArialMT-2c" transform="translate(400.292969 0)"/>
      <use xlink:href="#ArialMT-20" transform="translate(428.076172 0)"/>
      <use xlink:href="#ArialMT-53" transform="translate(455.859375 0)"/>
      <use xlink:href="#ArialMT-65" transform="translate(522.558594 0)"/>
      <use xlink:href="#ArialMT-72" transform="translate(578.173828 0)"/>
      <use xlink:href="#ArialMT-62" transform="translate(611.474609 0)"/>
      <use xlink:href="#ArialMT-69" transform="translate(667.089844 0)"/>
      <use xlink:href="#ArialMT-61" transform="translate(689.306641 0)"/>
     </g>
    </g>
    <g id="line2d_18">
     <path d="M 574.698343 67.88625 
L 586.698343 67.88625 
L 598.698343 67.88625 
" style="fill: none; stroke: #f39c12; stroke-opacity: 0.9; stroke-width: 3; stroke-linecap: round"/>
     <g>
      <use xlink:href="#md595ff053e" x="586.698343" y="67.88625" style="fill: #f39c12; fill-opacity: 0.9; stroke: #f39c12; stroke-opacity: 0.9"/>
     </g>
    </g>
    <g id="text_15">
     <!-- Torino, Italy -->
     <g style="fill: #262626" transform="translate(608.298343 72.08625) scale(0.12 -0.12)">
      <defs>
       <path id="ArialMT-54" d="M 1659 0 
L 1659 4041 
L 150 4041 
L 150 4581 
L 3781 4581 
L 3781 4041 
L 2266 4041 
L 2266 0 
L 1659 0 
z
" transform="scale(0.015625)"/>
       <path id="ArialMT-49" d="M 597 0 
L 597 4581 
L 1203 4581 
L 1203 0 
L 597 0 
z
" transform="scale(0.015625)"/>
       <path id="ArialMT-74" d="M 1650 503 
L 1731 6 
Q 1494 -44 1306 -44 
Q 1000 -44 831 53 
Q 663 150 594 308 
Q 525 466 525 972 
L 525 2881 
L 113 2881 
L 113 3319 
L 525 3319 
L 525 4141 
L 1084 4478 
L 1084 3319 
L 1650 3319 
L 1650 2881 
L 1084 2881 
L 1084 941 
Q 1084 700 1114 631 
Q 1144 563 1211 522 
Q 1278 481 1403 481 
Q 1497 481 1650 503 
z
" transform="scale(0.015625)"/>
      </defs>
      <use xlink:href="#ArialMT-54"/>
      <use xlink:href="#ArialMT-6f" transform="translate(49.958984 0)"/>
      <use xlink:href="#ArialMT-72" transform="translate(105.574219 0)"/>
      <use xlink:href="#ArialMT-69" transform="translate(138.875 0)"/>
      <use xlink:href="#ArialMT-6e" transform="translate(161.091797 0)"/>
      <use xlink:href="#ArialMT-6f" transform="translate(216.707031 0)"/>
      <use xlink:href="#ArialMT-2c" transform="translate(272.322266 0)"/>
      <use xlink:href="#ArialMT-20" transform="translate(300.105469 0)"/>
      <use xlink:href="#ArialMT-49" transform="translate(327.888672 0)"/>
      <use xlink:href="#ArialMT-74" transform="translate(355.671875 0)"/>
      <use xlink:href="#ArialMT-61" transform="translate(383.455078 0)"/>
      <use xlink:href="#ArialMT-6c" transform="translate(439.070312 0)"/>
      <use xlink:href="#ArialMT-79" transform="translate(461.287109 0)"/>
     </g>
    </g>
   </g>
  </g>
 </g>
 <defs>
  <clipPath id="pf0f6e61ce0">
   <path d="M 552.0451 314.076486 
C 552.0451 279.837683 545.300803 245.931809 532.19818 214.29928 
C 519.095557 182.666751 499.889422 153.922739 475.678933 129.712249 
C 451.468443 105.501759 422.724431 86.295624 391.091901 73.193001 
C 359.459372 60.090379 325.553498 53.346081 291.314695 53.346081 
C 257.075892 53.346081 223.170018 60.090379 191.537488 73.193001 
C 159.904959 86.295624 131.160947 105.501759 106.950457 129.712249 
C 82.739967 153.922739 63.533833 182.666751 50.43121 214.29928 
C 37.328587 245.931809 30.584289 279.837683 30.584289 314.076486 
C 30.584289 348.31529 37.328587 382.221163 50.43121 413.853693 
C 63.533833 445.486222 82.739967 474.230234 106.950457 498.440724 
C 131.160947 522.651214 159.904959 541.857349 191.537488 554.959971 
C 223.170018 568.062594 257.075892 574.806892 291.314695 574.806892 
C 325.553498 574.806892 359.459372 568.062594 391.091901 554.959971 
C 422.724431 541.857349 451.468443 522.651214 475.678933 498.440724 
C 499.889422 474.230234 519.095557 445.486222 532.19818 413.853693 
C 545.300803 382.221163 552.0451 348.31529 552.0451 314.076486 
M 291.314695 314.076486 
C 291.314695 314.076486 291.314695 314.076486 291.314695 314.076486 
C 291.314695 314.076486 291.314695 314.076486 291.314695 314.076486 
C 291.314695 314.076486 291.314695 314.076486 291.314695 314.076486 
C 291.314695 314.076486 291.314695 314.076486 291.314695 314.076486 
C 291.314695 314.076486 291.314695 314.076486 291.314695 314.076486 
C 291.314695 314.076486 291.314695 314.076486 291.314695 314.076486 
C 291.314695 314.076486 291.314695 314.076486 291.314695 314.076486 
C 291.314695 314.076486 291.314695 314.076486 291.314695 314.076486 
C 291.314695 314.076486 291.314695 314.076486 291.314695 314.076486 
C 291.314695 314.076486 291.314695 314.076486 291.314695 314.076486 
C 291.314695 314.076486 291.314695 314.076486 291.314695 314.076486 
C 291.314695 314.076486 291.314695 314.076486 291.314695 314.076486 
C 291.314695 314.076486 291.314695 314.076486 291.314695 314.076486 
C 291.314695 314.076486 291.314695 314.076486 291.314695 314.076486 
C 291.314695 314.076486 291.314695 314.076486 291.314695 314.076486 
C 291.314695 314.076486 291.314695 314.076486 291.314695 314.076486 
z
"/>
  </clipPath>
 </defs>
</svg>
